<svg id="Layer_1" data-name="Layer 1" xmlns="http://www.w3.org/2000/svg" viewBox="0 0 204 54"><defs><style>.cls-1{fill:#fff;stroke:#231f20;stroke-linecap:round;stroke-linejoin:round;stroke-width:4px;}.cls-2{isolation:isolate;}.cls-3{fill:#231f20;}.cls-4{fill:#080808;}.cls-5{fill:#484848;}.cls-6{fill:#121212;}.cls-7{fill:#343434;}</style></defs><g id="White_BKG" data-name="White BKG"><g id="Layer_1-2" data-name="Layer 1"><rect class="cls-1" x="2" y="2" width="200" height="50"/><g class="cls-2"><path class="cls-3" d="M60.49,9.27c4.28,0,8,.46,11.41,3a15.19,15.19,0,0,1,5.89,12.38A14.66,14.66,0,0,1,71.63,37C68,39.55,64.68,40,60.4,40H52.49V9.27Zm-2,25.54h1.84a12.8,12.8,0,0,0,7.5-2,10,10,0,0,0,3.82-8.14,10.23,10.23,0,0,0-3.78-8.19c-2.48-1.84-5.52-2-7.54-2H58.47Z"/><path class="cls-3" d="M100.93,22.2a10.76,10.76,0,0,1,0,15.6,11.5,11.5,0,0,1-8.05,2.8,11.51,11.51,0,0,1-8.06-2.8,10.76,10.76,0,0,1,0-15.6,11.51,11.51,0,0,1,8.06-2.8A11.5,11.5,0,0,1,100.93,22.2ZM98.49,30a5.62,5.62,0,1,0-5.61,5.62A5.56,5.56,0,0,0,98.49,30Z"/><path class="cls-3" d="M108.61,20h5.61v2.58a7.29,7.29,0,0,1,6.16-3.22,7.61,7.61,0,0,1,5.89,2.43,8.42,8.42,0,0,1,1.57,5.62V40h-5.62V29.1c0-1.1,0-2.85-1-3.91a3.6,3.6,0,0,0-2.63-1,3.84,3.84,0,0,0-3.45,1.75,6.82,6.82,0,0,0-.87,3.86V40h-5.61Z"/><path class="cls-3" d="M148.44,20h5.62V40h-5.62V37.38a7.13,7.13,0,0,1-6.12,3.22c-6.11,0-10.16-4.78-10.16-10.62s4-10.58,9.89-10.58a7.19,7.19,0,0,1,6.39,3.22ZM138,30A5.53,5.53,0,1,0,149,30,5.53,5.53,0,1,0,138,30Z"/><path class="cls-3" d="M165,24.82V40h-5.61V24.82h-2.21V20h2.21V13.23H165V20h3.87v4.78Z"/><path class="cls-3" d="M191.36,34.39c-.6,1.48-2.85,6.21-9.8,6.21a10.46,10.46,0,0,1-7.64-2.8A10.07,10.07,0,0,1,170.8,30a10.65,10.65,0,0,1,3-7.82,10.21,10.21,0,0,1,7.5-2.8c4,0,6.4,1.61,7.78,3.26a11.94,11.94,0,0,1,2.39,7.82v.46H176.59a5.9,5.9,0,0,0,1,3.36,4.74,4.74,0,0,0,4,1.89,5.14,5.14,0,0,0,4.65-2.62Zm-5.15-7a4.78,4.78,0,0,0-9.43,0Z"/></g></g><g id="Layer_2" data-name="Layer 2"><path class="cls-4" d="M7.8,42.6c-1-.6-1.1-.8-.7-1.9a20.48,20.48,0,0,0,.5-2.4c.4-2.2.7-4.4,1-6.6.4-2.5.8-5,1.2-7.4.3-1.7.5-3.3.8-5l1.2-7.5c.2-1.1.3-2.3.6-3.4A1.81,1.81,0,0,1,14.1,7H27.8a12.32,12.32,0,0,1,7,1.9,7.35,7.35,0,0,1,3.1,7.4,1.42,1.42,0,0,1-.2.6c-.1.5-.2.5-.6.3a8.6,8.6,0,0,0-3.9-.9,37.58,37.58,0,0,0-5.8-.3H22.1a3.4,3.4,0,0,0-1,.1,1.55,1.55,0,0,0-1,1.2c-.3,1.5-.5,3-.7,4.5-.4,2.5-.8,5.1-1.2,7.6,0,.3.1.5,0,.7-.3,1.2-.5,2.4-.7,3.6-.4,2.6-.8,5.3-1.3,7.9,0,.2-.1.4-.1.6s-.2.4-.4.3C13.1,42.6,10.5,42.7,7.8,42.6Z"/><path class="cls-5" d="M7.8,42.6h7.3c.8,0,.8,0,1-.8.6-3.5,1.1-7.1,1.7-10.7a3.55,3.55,0,0,0,.2-1,1.47,1.47,0,0,1,1.8-1h3.7a17.74,17.74,0,0,0,5.6-.9,11.69,11.69,0,0,0,7.6-7.4,22.88,22.88,0,0,0,.8-2.8.55.55,0,0,1,.3-.5.66.66,0,0,1,.6.1,6.11,6.11,0,0,1,2.6,5,14.1,14.1,0,0,1-1.3,6.7,9.73,9.73,0,0,1-5.9,5.5,13.17,13.17,0,0,1-4.4.8,16.2,16.2,0,0,0-2.2.1,1.91,1.91,0,0,0-1.8,1.6c-.2,1.2-.3,2.4-.6,3.6-.3,1.6-.5,3.2-.8,4.7a1.34,1.34,0,0,1-1.5,1.2H16.2a.64.64,0,0,1-.6-.8v-.1a20,20,0,0,0,.4-2.4.45.45,0,0,0,0-.5c.1-.4-.2-.4-.5-.4h-7C8.2,42.7,8,42.8,7.8,42.6Z"/><path class="cls-6" d="M37.8,17.7a19.06,19.06,0,0,1-1,3.4A12.26,12.26,0,0,1,26.9,29a39.86,39.86,0,0,1-6.9.3,2.35,2.35,0,0,0-2.1.8,50.32,50.32,0,0,1,.8-5.6c.3-2.2.7-4.5,1.1-6.7.2-1.5.7-1.9,2.2-1.9h8.9a17.33,17.33,0,0,1,5.5.7,2,2,0,0,1,.8.4c.2.2.3.1.5-.1a.9.9,0,0,0,.1.5C37.9,17.6,37.8,17.5,37.8,17.7Z"/><path class="cls-7" d="M37.8,17.7l.1-.4a5.57,5.57,0,0,1,3,4,11,11,0,0,1-.2,5.4,12.86,12.86,0,0,1-3.2,6.1,11.74,11.74,0,0,1-5.9,2.9,30,30,0,0,1-4.3.3,1.53,1.53,0,0,0-1.7,1.5h0l-1.2,7.8c-.2,1.4-.7,1.9-2.2,1.9H16.7c-1,0-1.4-.4-1.2-1.4s.3-1.7.4-2.6c.1-.1.1-.2.2-.2s.1.2.1.3l-.3,1.8a2.92,2.92,0,0,1-.2.9c-.1.6,0,.7.6.7h6.4a1,1,0,0,0,1.2-.9c.4-2.3.8-4.7,1.1-7.1a4.38,4.38,0,0,1,.8-2.5,2.49,2.49,0,0,1,2.3-.7,17.11,17.11,0,0,0,3.9-.3,10,10,0,0,0,5.6-3A12.21,12.21,0,0,0,40,27.7a16.31,16.31,0,0,0,.6-5.4,5.28,5.28,0,0,0-2.5-4.5A.19.19,0,0,0,37.8,17.7Z"/></g></g></svg>