<?xml version="1.0" encoding="utf-8"?>
<!-- Generator: Adobe Illustrator 26.5.2, SVG Export Plug-In . SVG Version: 6.00 Build 0)  -->
<svg version="1.1" id="Layer_1" xmlns="http://www.w3.org/2000/svg" xmlns:xlink="http://www.w3.org/1999/xlink" x="0px" y="0px"
	 viewBox="0 0 1509.3 532.7" style="enable-background:new 0 0 1509.3 532.7;" xml:space="preserve">
<style type="text/css">
	.st0{display:none;}
	.st1{display:inline;}
	.st2{fill:#FFFFFF;}
</style>
<g id="TEXT" class="st0">
	<g class="st1">
		<path class="st2" d="M668.3,80.7h-46.7v24.8h42.4v32.8h-42.4v58.5H583V47.9h85.3L668.3,80.7L668.3,80.7z"/>
		<path class="st2" d="M703.6,35.4c11.2,0,20.1,8.9,20.1,20.1s-8.9,20.1-20.1,20.1s-20.1-8.9-20.1-20.1S692.4,35.4,703.6,35.4z
			 M721.5,97v99.8h-35.7V97H721.5L721.5,97z"/>
		<path class="st2" d="M781.5,34v162.7h-35.7V34H781.5z"/>
		<path class="st2" d="M911.7,153.4h-74.3c0,5.4,2,12.5,6.2,16.7c2.2,2.2,6.7,4.9,14.7,4.9c0.9,0,7.1-0.2,11.6-2.7
			c2.2-1.3,4.7-3.6,6.2-6.7h34.2c-1.6,5.6-4.7,13.4-12.1,20.5c-7.4,7.1-19,13.8-40.6,13.8c-13.2,0-29-2.9-41.3-15.2
			c-6.5-6.5-14.7-18.8-14.7-37.7c0-16.7,6.2-30.1,15-38.6c8.3-8,21.2-14.5,40.8-14.5c11.6,0,26.6,2.5,38.4,13.6
			c14.1,13.4,15.8,30.8,15.8,42V153.4L911.7,153.4z M878.8,132.9c-0.9-3.8-3.1-8-5.8-10.7c-4.7-4.7-11.2-5.4-14.7-5.4
			c-6,0-10.7,1.6-14.5,5.4c-2.5,2.7-4.7,6.2-5.4,10.7H878.8L878.8,132.9z"/>
		<path class="st2" d="M932.2,97h35.7v12.5c9.8-12.9,23-14.7,31.7-14.7c10.3,0,21.2,2.5,29.5,10.7c8.5,8.5,9.4,17,9.4,27.9v63.4
			h-35.7v-50.4c0-5.8,0.2-14.5-4.5-19.4c-3.3-3.6-7.8-4.2-11.4-4.2c-5.6,0-10.3,2-13.2,4.7c-3.6,3.3-5.8,9.8-5.8,15.8v53.6h-35.7
			L932.2,97L932.2,97z"/>
		<path class="st2" d="M1140,97h35.7v99.8H1140v-10.9c-8.3,11.4-21.2,14.3-31,14.3c-10.7,0-23.9-3.1-35.9-15.9
			c-9.6-10.3-14.3-21.6-14.3-36.6c0-18.8,7.4-31.9,15.4-40c8.5-8.5,21.7-14.1,35.9-14.1c16.1,0,25.7,8.3,29.9,12.9L1140,97L1140,97z
			 M1102.5,130.5c-4.9,4.7-7.1,11.2-7.1,16.3c0,5.8,2.5,12.1,6.9,16.3c3.8,3.6,10,6.7,16.1,6.7s11.6-2.5,16.1-6.9
			c3.1-3.1,6.7-8,6.7-16.1c0-4.7-1.3-10.9-6.9-16.3c-3.3-3.1-8.5-6.5-16.1-6.5C1113.7,124,1107.7,125.6,1102.5,130.5L1102.5,130.5z"
			/>
		<path class="st2" d="M1200.3,97h35.7V109c8.5-10.3,20.1-13.8,29.9-13.8c7.1,0,13.8,1.6,19.2,4.5c7.4,3.8,11.4,9.4,13.8,14.3
			c4-7.1,9.2-11.4,13.6-13.8c7.1-4,14.1-4.9,20.8-4.9c7.4,0,19.4,1.1,27.7,9.2c8.9,8.7,9.4,20.5,9.4,27.5v65h-35.7v-49.3
			c0-10.5-1.1-17.6-5.1-21.4c-2-1.8-4.7-3.3-9.4-3.3c-4,0-7.4,1.1-10.5,4c-6,5.8-6.5,14.1-6.5,19v51.1h-35.7v-49.3
			c0-9.6-0.7-17.2-4.7-21.4c-3.1-3.3-7.1-4-10.7-4c-3.8,0-6.9,0.7-9.8,3.6c-6.2,6-6.2,15.6-6.2,21.9v49.3h-35.7L1200.3,97L1200.3,97
			z"/>
		<path class="st2" d="M1501,153.4h-74.3c0,5.4,2,12.5,6.2,16.7c2.2,2.2,6.7,4.9,14.7,4.9c0.9,0,7.1-0.2,11.6-2.7
			c2.2-1.3,4.7-3.6,6.2-6.7h34.2c-1.6,5.6-4.7,13.4-12.1,20.5c-7.4,7.1-19,13.8-40.6,13.8c-13.2,0-29-2.9-41.3-15.2
			c-6.5-6.5-14.7-18.8-14.7-37.7c0-16.7,6.2-30.1,15-38.6c8.3-8,21.2-14.5,40.8-14.5c11.6,0,26.6,2.5,38.4,13.6
			c14.1,13.4,15.8,30.8,15.8,42L1501,153.4L1501,153.4z M1468.2,132.9c-0.9-3.8-3.1-8-5.8-10.7c-4.7-4.7-11.2-5.4-14.7-5.4
			c-6,0-10.7,1.6-14.5,5.4c-2.5,2.7-4.7,6.2-5.4,10.7H1468.2L1468.2,132.9z"/>
		<path class="st2" d="M673.9,439.6h-54l-10,25H569l57.2-148.9h42.2l56,148.9h-41.3L673.9,439.6L673.9,439.6z M663.6,410.2
			L646.9,362l-16.3,48.2H663.6z"/>
		<path class="st2" d="M744.7,431.6c4.2,3.1,9.4,5.8,14.3,7.4c4.5,1.6,10,2.5,13.8,2.5c2.7,0,6.9-0.7,9.2-2.7
			c1.6-1.6,1.8-2.9,1.8-4.7c0-1.6-0.2-3.1-1.8-4.5c-2.2-2-5.8-2.7-9.4-3.6l-9.4-2.2c-4.9-1.1-12-2.9-17.4-8.7
			c-3.8-4-6.5-9.6-6.5-17.2c0-9.6,3.8-18.5,9.4-24.3c7.6-7.8,21-12,35.7-12s26.1,4,31.9,6.5l-12,22.8c-4.9-2.2-12.3-4.9-18.8-4.9
			c-3.6,0-6,0.7-8.3,2c-2,1.1-3.1,2.7-3.1,4.9c0,3.1,2,4.7,4.2,5.6c3.3,1.3,6.2,1.3,11.8,2.9l6.5,1.8c4.7,1.3,11.8,4.9,14.7,7.8
			c4.9,4.7,7.6,12.5,7.6,19.9c0,12-5.1,20.1-10,24.8c-11.6,11.6-28.6,12.5-36.8,12.5c-8.9,0-23-1.1-40.2-11.6L744.7,431.6
			L744.7,431.6z"/>
		<path class="st2" d="M843.8,431.6c4.2,3.1,9.4,5.8,14.3,7.4c4.5,1.6,10,2.5,13.8,2.5c2.7,0,6.9-0.7,9.2-2.7
			c1.6-1.6,1.8-2.9,1.8-4.7c0-1.6-0.2-3.1-1.8-4.5c-2.2-2-5.8-2.7-9.4-3.6l-9.4-2.2c-4.9-1.1-12-2.9-17.4-8.7
			c-3.8-4-6.5-9.6-6.5-17.2c0-9.6,3.8-18.5,9.4-24.3c7.6-7.8,21-12,35.7-12s26.1,4,31.9,6.5l-12,22.8c-4.9-2.2-12.3-4.9-18.8-4.9
			c-3.6,0-6,0.7-8.3,2c-2,1.1-3.1,2.7-3.1,4.9c0,3.1,2,4.7,4.2,5.6c3.3,1.3,6.2,1.3,11.8,2.9l6.5,1.8c4.7,1.3,11.8,4.9,14.7,7.8
			c4.9,4.7,7.6,12.5,7.6,19.9c0,12-5.1,20.1-10,24.8c-11.6,11.6-28.6,12.5-36.8,12.5c-8.9,0-23-1.1-40.2-11.6L843.8,431.6
			L843.8,431.6z"/>
		<path class="st2" d="M954.3,303.2c11.2,0,20.1,8.9,20.1,20.1s-8.9,20.1-20.1,20.1s-20.1-8.9-20.1-20.1S943.1,303.2,954.3,303.2z
			 M972.1,364.9v99.8h-35.7v-99.8H972.1L972.1,364.9z"/>
		<path class="st2" d="M1003,431.6c4.2,3.1,9.4,5.8,14.3,7.4c4.5,1.6,10.1,2.5,13.8,2.5c2.7,0,6.9-0.7,9.2-2.7
			c1.6-1.6,1.8-2.9,1.8-4.7c0-1.6-0.2-3.1-1.8-4.5c-2.2-2-5.8-2.7-9.4-3.6l-9.4-2.2c-4.9-1.1-12-2.9-17.4-8.7
			c-3.8-4-6.5-9.6-6.5-17.2c0-9.6,3.8-18.5,9.4-24.3c7.6-7.8,21-12,35.7-12s26.1,4,31.9,6.5l-12.1,22.8c-4.9-2.2-12.3-4.9-18.8-4.9
			c-3.6,0-6,0.7-8.3,2c-2,1.1-3.1,2.7-3.1,4.9c0,3.1,2,4.7,4.2,5.6c3.3,1.3,6.2,1.3,11.8,2.9l6.5,1.8c4.7,1.3,11.8,4.9,14.7,7.8
			c4.9,4.7,7.6,12.5,7.6,19.9c0,12-5.1,20.1-10.1,24.8c-11.6,11.6-28.6,12.5-36.8,12.5c-8.9,0-23-1.1-40.2-11.6L1003,431.6
			L1003,431.6z"/>
		<path class="st2" d="M1135.1,394.1v70.5h-35.7v-70.5H1088v-29.2h11.4V332h35.7v32.8h20.3v29.2H1135.1z"/>
		<path class="st2" d="M1246.1,364.9h35.7v99.8h-35.7v-10.9c-8.3,11.4-21.2,14.3-31,14.3c-10.7,0-23.9-3.1-35.9-15.9
			c-9.6-10.3-14.3-21.6-14.3-36.6c0-18.8,7.4-31.9,15.4-40c8.5-8.5,21.7-14.1,35.9-14.1c16.1,0,25.7,8.3,29.9,13L1246.1,364.9
			L1246.1,364.9z M1208.6,398.3c-4.9,4.7-7.1,11.2-7.1,16.3c0,5.8,2.5,12,6.9,16.3c3.8,3.6,10,6.7,16.1,6.7s11.6-2.5,16.1-6.9
			c3.1-3.1,6.7-8,6.7-16.1c0-4.7-1.3-10.9-6.9-16.3c-3.3-3.1-8.5-6.5-16.1-6.5C1219.7,391.9,1213.7,393.4,1208.6,398.3L1208.6,398.3
			z"/>
		<path class="st2" d="M1306.3,364.9h35.7v12.5c9.8-13,23-14.7,31.7-14.7c10.3,0,21.2,2.5,29.5,10.7s9.4,17,9.4,27.9v63.4h-35.7
			v-50.5c0-5.8,0.2-14.5-4.5-19.4c-3.3-3.6-7.8-4.2-11.4-4.2c-5.6,0-10.3,2-13.2,4.7c-3.6,3.4-5.8,9.8-5.8,15.9v53.6h-35.7
			L1306.3,364.9L1306.3,364.9z"/>
		<path class="st2" d="M1476.4,394.1v70.5h-35.7v-70.5h-11.4v-29.2h11.4V332h35.7v32.8h20.3v29.2H1476.4z"/>
	</g>
</g>
<g id="BKG">
	<circle cx="266" cy="266.7" r="256"/>
	<g>
		<path d="M266,10.7c141.4,0,256,114.6,256,256s-114.6,256-256,256S10,408.1,10,266.7S124.6,10.7,266,10.7 M266-14.3
			c-37.9,0-74.7,7.4-109.4,22.1C123.2,21.9,93.1,42.2,67.3,68c-25.8,25.8-46.1,55.8-60.2,89.3C-7.6,192-15,228.8-15,266.7
			s7.4,74.7,22.1,109.4c14.2,33.5,34.4,63.5,60.2,89.3s55.8,46.1,89.3,60.2c34.7,14.7,71.5,22.1,109.4,22.1s74.7-7.4,109.4-22.1
			c33.5-14.2,63.5-34.4,89.3-60.2c25.8-25.8,46.1-55.8,60.2-89.3c14.7-34.7,22.1-71.5,22.1-109.4s-7.4-74.7-22.1-109.4
			c-14.2-33.5-34.4-63.5-60.2-89.3c-25.8-25.8-55.8-46.1-89.3-60.2C340.7-6.9,303.9-14.3,266-14.3L266-14.3z"/>
	</g>
	<path class="st2" d="M266,10.7c141.4,0,256,114.6,256,256s-114.6,256-256,256S10,408.1,10,266.7S124.6,10.7,266,10.7 M266,0.7
		c-35.9,0-70.7,7-103.5,20.9c-31.7,13.4-60.1,32.6-84.6,57c-24.4,24.4-43.6,52.9-57,84.5C7,195.9,0,230.8,0,266.7s7,70.7,20.9,103.5
		c13.4,31.7,32.6,60.1,57,84.6c24.4,24.4,52.9,43.6,84.6,57c32.8,13.9,67.6,20.9,103.5,20.9s70.7-7,103.5-20.9
		c31.7-13.4,60.1-32.6,84.6-57c24.4-24.4,43.6-52.9,57-84.6C525,337.4,532,302.6,532,266.7s-7-70.7-20.9-103.5
		c-13.4-31.7-32.6-60.1-57-84.6c-24.4-24.4-52.9-43.6-84.6-57C336.7,7.7,301.9,0.7,266,0.7C266,0.7,266,0.7,266,0.7z"/>
</g>
<g id="LOGO">
	<path class="st2" d="M495.7,153.5L456,192.8l-174.2,58l58-174.2l39.6-39.6c-3.2-1.6-6.4-3.1-9.6-4.5l-38.7,38.7L266,266.7
		l195.4-65.1l38.8-38.5C498.7,159.9,497.2,156.7,495.7,153.5z"/>
	<path class="st2" d="M459.6,99.2c-8.1-9.3-16.8-18.1-26.2-26.2L400,106.5l26.2,26.2L459.6,99.2z"/>
	<polygon class="st2" points="333.6,180.5 352.2,199.1 417.3,177.4 355.3,115.4 	"/>
	<path class="st2" d="M250.8,157.9L250.8,157.9l-15.7,0c-2.7,0-5,1.8-5,4v209.5c0,2.2,2.2,4,5,4h15.7c2.8,0,5-1.8,5-4V162
		C255.7,159.7,253.5,157.9,250.8,157.9z"/>
	<path class="st2" d="M266,338.6c0,2.2,2.2,4,5,4h15.7c2.8,0,5-1.8,5-4v-80.5l-25.6,8.5V338.6z"/>
	<path class="st2" d="M214.9,212.6h-15.7c-2.7,0-5,1.8-5,4v100.2c0,2.2,2.2,4,5,4h15.7c2.8,0,5-1.8,5-4V216.6
		C219.8,214.4,217.6,212.6,214.9,212.6z"/>
	<path class="st2" d="M179,234.4h-15.7c-2.7,0-5,1.8-5,4v56.4c0,2.2,2.2,4,5,4H179c2.8,0,5-1.8,5-4v-56.4
		C184,236.2,181.7,234.4,179,234.4z"/>
	<path class="st2" d="M143.1,245.4h-15.7c-2.7,0-5,1.8-5,4V284c0,2.2,2.2,4,5,4h15.7c2.8,0,5-1.8,5-4v-34.6
		C148.1,247.2,145.9,245.4,143.1,245.4z"/>
	<path class="st2" d="M71.3,256.3H55.7c-2.7,0-5,1.8-5,4V273c0,2.2,2.2,4,5,4h15.7c2.7,0,5-1.8,5-4v-12.7
		C76.3,258.1,74.1,256.3,71.3,256.3z"/>
	<path class="st2" d="M107.2,256.3H91.5c-2.7,0-5,1.8-5,4V273c0,2.2,2.2,4,5,4h15.7c2.7,0,5-1.8,5-4v-12.7
		C112.2,258.1,110,256.3,107.2,256.3z"/>
</g>
</svg>
