<?xml version="1.0" encoding="utf-8"?>
<!-- Generator: Adobe Illustrator 26.5.3, SVG Export Plug-In . SVG Version: 6.00 Build 0)  -->
<svg version="1.1" id="Layer_1" xmlns="http://www.w3.org/2000/svg" xmlns:xlink="http://www.w3.org/1999/xlink" x="0px" y="0px"
	 viewBox="0 0 562 562" style="enable-background:new 0 0 562 562;" xml:space="preserve">
<style type="text/css">
	.st0{display:none;}
	.st1{display:inline;}
	.st2{fill:#FFFFFF;}
</style>
<g id="TEXT" class="st0">
	<g class="st1">
		<path class="st2" d="M-923.5,95h-46.7v24.8h42.4v32.8h-42.4v58.5h-38.6V62.2h85.3V95L-923.5,95z"/>
		<path class="st2" d="M-888.2,49.7c11.2,0,20.1,8.9,20.1,20.1s-8.9,20.1-20.1,20.1s-20.1-8.9-20.1-20.1S-899.4,49.7-888.2,49.7z
			 M-870.3,111.3v99.8H-906v-99.8H-870.3L-870.3,111.3z"/>
		<path class="st2" d="M-810.3,48.3V211H-846V48.3H-810.3z"/>
		<path class="st2" d="M-680.1,167.7h-74.3c0,5.4,2,12.5,6.2,16.7c2.2,2.2,6.7,4.9,14.7,4.9c0.9,0,7.1-0.2,11.6-2.7
			c2.2-1.3,4.7-3.6,6.2-6.7h34.2c-1.6,5.6-4.7,13.4-12.1,20.5c-7.4,7.1-19,13.8-40.6,13.8c-13.2,0-29-2.9-41.3-15.2
			c-6.5-6.5-14.7-18.8-14.7-37.7c0-16.7,6.2-30.1,15-38.6c8.3-8,21.2-14.5,40.8-14.5c11.6,0,26.6,2.5,38.4,13.6
			c14.1,13.4,15.8,30.8,15.8,42L-680.1,167.7L-680.1,167.7z M-713,147.2c-0.9-3.8-3.1-8-5.8-10.7c-4.7-4.7-11.2-5.4-14.7-5.4
			c-6,0-10.7,1.6-14.5,5.4c-2.5,2.7-4.7,6.2-5.4,10.7H-713L-713,147.2z"/>
		<path class="st2" d="M-659.6,111.3h35.7v12.5c9.8-12.9,23-14.7,31.7-14.7c10.3,0,21.2,2.5,29.5,10.7c8.5,8.5,9.4,17,9.4,27.9v63.4
			H-589v-50.4c0-5.8,0.2-14.5-4.5-19.4c-3.3-3.6-7.8-4.2-11.4-4.2c-5.6,0-10.3,2-13.2,4.7c-3.6,3.3-5.8,9.8-5.8,15.8v53.6h-35.7
			L-659.6,111.3L-659.6,111.3z"/>
		<path class="st2" d="M-451.8,111.3h35.7v99.8h-35.7v-10.9c-8.3,11.4-21.2,14.3-31,14.3c-10.7,0-23.9-3.1-35.9-15.9
			C-528.3,188.3-533,177-533,162c0-18.8,7.4-31.9,15.4-40c8.5-8.5,21.7-14.1,35.9-14.1c16.1,0,25.7,8.3,29.9,12.9V111.3
			L-451.8,111.3z M-489.3,144.8c-4.9,4.7-7.1,11.2-7.1,16.3c0,5.8,2.5,12.1,6.9,16.3c3.8,3.6,10,6.7,16.1,6.7s11.6-2.5,16.1-6.9
			c3.1-3.1,6.7-8,6.7-16.1c0-4.7-1.3-10.9-6.9-16.3c-3.3-3.1-8.5-6.5-16.1-6.5C-478.1,138.3-484.1,139.9-489.3,144.8L-489.3,144.8z"
			/>
		<path class="st2" d="M-391.5,111.3h35.7v12c8.5-10.3,20.1-13.8,29.9-13.8c7.1,0,13.8,1.6,19.2,4.5c7.4,3.8,11.4,9.4,13.8,14.3
			c4-7.1,9.2-11.4,13.6-13.8c7.1-4,14.1-4.9,20.8-4.9c7.4,0,19.4,1.1,27.7,9.2c8.9,8.7,9.4,20.5,9.4,27.5v65h-35.7V162
			c0-10.5-1.1-17.6-5.1-21.4c-2-1.8-4.7-3.3-9.4-3.3c-4,0-7.4,1.1-10.5,4c-6,5.8-6.5,14.1-6.5,19v51.1h-35.7v-49.3
			c0-9.6-0.7-17.2-4.7-21.4c-3.1-3.3-7.1-4-10.7-4c-3.8,0-6.9,0.7-9.8,3.6c-6.2,6-6.2,15.6-6.2,21.9v49.3h-35.7L-391.5,111.3
			L-391.5,111.3z"/>
		<path class="st2" d="M-90.8,167.7h-74.3c0,5.4,2,12.5,6.2,16.7c2.2,2.2,6.7,4.9,14.7,4.9c0.9,0,7.1-0.2,11.6-2.7
			c2.2-1.3,4.7-3.6,6.2-6.7h34.2c-1.6,5.6-4.7,13.4-12.1,20.5s-19,13.8-40.6,13.8c-13.2,0-29-2.9-41.3-15.2
			c-6.5-6.5-14.7-18.8-14.7-37.7c0-16.7,6.2-30.1,15-38.6c8.3-8,21.2-14.5,40.8-14.5c11.6,0,26.6,2.5,38.4,13.6
			c14.1,13.4,15.8,30.8,15.8,42L-90.8,167.7L-90.8,167.7z M-123.6,147.2c-0.9-3.8-3.1-8-5.8-10.7c-4.7-4.7-11.2-5.4-14.7-5.4
			c-6,0-10.7,1.6-14.5,5.4c-2.5,2.7-4.7,6.2-5.4,10.7H-123.6L-123.6,147.2z"/>
		<path class="st2" d="M-917.9,453.9h-54l-10,25h-40.9l57.2-148.9h42.2l56,148.9h-41.3L-917.9,453.9L-917.9,453.9z M-928.2,424.5
			l-16.7-48.2l-16.3,48.2H-928.2z"/>
		<path class="st2" d="M-847.1,445.9c4.2,3.1,9.4,5.8,14.3,7.4c4.5,1.6,10,2.5,13.8,2.5c2.7,0,6.9-0.7,9.2-2.7
			c1.6-1.6,1.8-2.9,1.8-4.7c0-1.6-0.2-3.1-1.8-4.5c-2.2-2-5.8-2.7-9.4-3.6l-9.4-2.2c-4.9-1.1-12-2.9-17.4-8.7
			c-3.8-4-6.5-9.6-6.5-17.2c0-9.6,3.8-18.5,9.4-24.3c7.6-7.8,21-12,35.7-12s26.1,4,31.9,6.5l-12,22.8c-4.9-2.2-12.3-4.9-18.8-4.9
			c-3.6,0-6,0.7-8.3,2c-2,1.1-3.1,2.7-3.1,4.9c0,3.1,2,4.7,4.2,5.6c3.3,1.3,6.2,1.3,11.8,2.9l6.5,1.8c4.7,1.3,11.8,4.9,14.7,7.8
			c4.9,4.7,7.6,12.5,7.6,19.9c0,12-5.1,20.1-10,24.8c-11.6,11.6-28.6,12.5-36.8,12.5c-8.9,0-23-1.1-40.2-11.6L-847.1,445.9
			L-847.1,445.9z"/>
		<path class="st2" d="M-748,445.9c4.2,3.1,9.4,5.8,14.3,7.4c4.5,1.6,10,2.5,13.8,2.5c2.7,0,6.9-0.7,9.2-2.7
			c1.6-1.6,1.8-2.9,1.8-4.7c0-1.6-0.2-3.1-1.8-4.5c-2.2-2-5.8-2.7-9.4-3.6l-9.4-2.2c-4.9-1.1-12-2.9-17.4-8.7
			c-3.8-4-6.5-9.6-6.5-17.2c0-9.6,3.8-18.5,9.4-24.3c7.6-7.8,21-12,35.7-12s26.1,4,31.9,6.5l-12,22.8c-4.9-2.2-12.3-4.9-18.8-4.9
			c-3.6,0-6,0.7-8.3,2c-2,1.1-3.1,2.7-3.1,4.9c0,3.1,2,4.7,4.2,5.6c3.3,1.3,6.2,1.3,11.8,2.9l6.5,1.8c4.7,1.3,11.8,4.9,14.7,7.8
			c4.9,4.7,7.6,12.5,7.6,19.9c0,12-5.1,20.1-10,24.8c-11.6,11.6-28.6,12.5-36.8,12.5c-8.9,0-23-1.1-40.2-11.6L-748,445.9L-748,445.9
			z"/>
		<path class="st2" d="M-637.5,317.5c11.2,0,20.1,8.9,20.1,20.1s-8.9,20.1-20.1,20.1s-20.1-8.9-20.1-20.1S-648.7,317.5-637.5,317.5z
			 M-619.7,379.2V479h-35.7v-99.8L-619.7,379.2L-619.7,379.2z"/>
		<path class="st2" d="M-588.8,445.9c4.2,3.1,9.4,5.8,14.3,7.4c4.5,1.6,10.1,2.5,13.8,2.5c2.7,0,6.9-0.7,9.2-2.7
			c1.6-1.6,1.8-2.9,1.8-4.7c0-1.6-0.2-3.1-1.8-4.5c-2.2-2-5.8-2.7-9.4-3.6l-9.4-2.2c-4.9-1.1-12-2.9-17.4-8.7
			c-3.8-4-6.5-9.6-6.5-17.2c0-9.6,3.8-18.5,9.4-24.3c7.6-7.8,21-12,35.7-12s26.1,4,31.9,6.5l-12.1,22.8c-4.9-2.2-12.3-4.9-18.8-4.9
			c-3.6,0-6,0.7-8.3,2c-2,1.1-3.1,2.7-3.1,4.9c0,3.1,2,4.7,4.2,5.6c3.3,1.3,6.2,1.3,11.8,2.9l6.5,1.8c4.7,1.3,11.8,4.9,14.7,7.8
			c4.9,4.7,7.6,12.5,7.6,19.9c0,12-5.1,20.1-10.1,24.8c-11.6,11.6-28.6,12.5-36.8,12.5c-8.9,0-23-1.1-40.2-11.6L-588.8,445.9
			L-588.8,445.9z"/>
		<path class="st2" d="M-456.7,408.4v70.5h-35.7v-70.5h-11.4v-29.2h11.4v-32.9h35.7v32.8h20.3v29.2h-20.3V408.4z"/>
		<path class="st2" d="M-345.7,379.2h35.7V479h-35.7v-10.9c-8.3,11.4-21.2,14.3-31,14.3c-10.7,0-23.9-3.1-35.9-15.9
			c-9.6-10.3-14.3-21.6-14.3-36.6c0-18.8,7.4-31.9,15.4-40c8.5-8.5,21.7-14.1,35.9-14.1c16.1,0,25.7,8.3,29.9,13V379.2L-345.7,379.2
			z M-383.2,412.6c-4.9,4.7-7.1,11.2-7.1,16.3c0,5.8,2.5,12,6.9,16.3c3.8,3.6,10,6.7,16.1,6.7s11.6-2.5,16.1-6.9
			c3.1-3.1,6.7-8,6.7-16.1c0-4.7-1.3-10.9-6.9-16.3c-3.3-3.1-8.5-6.5-16.1-6.5C-372.1,406.2-378.1,407.7-383.2,412.6L-383.2,412.6z"
			/>
		<path class="st2" d="M-285.5,379.2h35.7v12.5c9.8-13,23-14.7,31.7-14.7c10.3,0,21.2,2.5,29.5,10.7s9.4,17,9.4,27.9V479h-35.7
			v-50.5c0-5.8,0.2-14.5-4.5-19.4c-3.3-3.6-7.8-4.2-11.4-4.2c-5.6,0-10.3,2-13.2,4.7c-3.6,3.4-5.8,9.8-5.8,15.9v53.6h-35.7V379.2
			L-285.5,379.2z"/>
		<path class="st2" d="M-115.4,408.4v70.5h-35.7v-70.5h-11.4v-29.2h11.4v-32.9h35.7v32.8h20.3v29.2h-20.3V408.4z"/>
	</g>
</g>
<g id="BKG">
	<circle cx="281" cy="281" r="256"/>
	<g>
		<path d="M281,25c141.4,0,256,114.6,256,256S422.4,537,281,537S25,422.4,25,281S139.6,25,281,25 M281,0
			c-37.9,0-74.7,7.4-109.4,22.1c-33.4,14.1-63.5,34.4-89.3,60.2s-46.1,55.8-60.2,89.3C7.4,206.3,0,243.1,0,281s7.4,74.7,22.1,109.4
			c14.2,33.5,34.4,63.5,60.2,89.3s55.8,46.1,89.3,60.2C206.3,554.6,243.1,562,281,562s74.7-7.4,109.4-22.1
			c33.5-14.2,63.5-34.4,89.3-60.2c25.8-25.8,46.1-55.8,60.2-89.3C554.6,355.7,562,318.9,562,281s-7.4-74.7-22.1-109.4
			c-14.2-33.5-34.4-63.5-60.2-89.3c-25.8-25.8-55.8-46.1-89.3-60.2C355.7,7.4,318.9,0,281,0L281,0z"/>
	</g>
	<path class="st2" d="M281,25c141.4,0,256,114.6,256,256S422.4,537,281,537S25,422.4,25,281S139.6,25,281,25 M281,15
		c-35.9,0-70.7,7-103.5,20.9c-31.7,13.4-60.1,32.6-84.6,57c-24.4,24.4-43.6,52.9-57,84.5C22,210.2,15,245.1,15,281
		s7,70.7,20.9,103.5c13.4,31.7,32.6,60.1,57,84.6c24.4,24.4,52.9,43.6,84.6,57C210.3,540,245.1,547,281,547s70.7-7,103.5-20.9
		c31.7-13.4,60.1-32.6,84.6-57c24.4-24.4,43.6-52.9,57-84.6C540,351.7,547,316.9,547,281s-7-70.7-20.9-103.5
		c-13.4-31.7-32.6-60.1-57-84.6c-24.4-24.4-52.9-43.6-84.6-57C351.7,22,316.9,15,281,15L281,15z"/>
</g>
<g id="LOGO">
	<path class="st2" d="M510.7,167.8L471,207.1l-174.2,58l58-174.2l39.6-39.6c-3.2-1.6-6.4-3.1-9.6-4.5l-38.7,38.7L281,281l195.4-65.1
		l38.8-38.5C513.7,174.2,512.2,171,510.7,167.8z"/>
	<path class="st2" d="M474.6,113.5c-8.1-9.3-16.8-18.1-26.2-26.2L415,120.8l26.2,26.2L474.6,113.5z"/>
	<polygon class="st2" points="348.6,194.8 367.2,213.4 432.3,191.7 370.3,129.7 	"/>
	<path class="st2" d="M265.8,172.2L265.8,172.2h-15.7c-2.7,0-5,1.8-5,4v209.5c0,2.2,2.2,4,5,4h15.7c2.8,0,5-1.8,5-4V176.3
		C270.7,174,268.5,172.2,265.8,172.2z"/>
	<path class="st2" d="M281,352.9c0,2.2,2.2,4,5,4h15.7c2.8,0,5-1.8,5-4v-80.5l-25.6,8.5v72H281z"/>
	<path class="st2" d="M229.9,226.9h-15.7c-2.7,0-5,1.8-5,4v100.2c0,2.2,2.2,4,5,4h15.7c2.8,0,5-1.8,5-4V230.9
		C234.8,228.7,232.6,226.9,229.9,226.9z"/>
	<path class="st2" d="M194,248.7h-15.7c-2.7,0-5,1.8-5,4v56.4c0,2.2,2.2,4,5,4H194c2.8,0,5-1.8,5-4v-56.4
		C199,250.5,196.7,248.7,194,248.7z"/>
	<path class="st2" d="M158.1,259.7h-15.7c-2.7,0-5,1.8-5,4v34.6c0,2.2,2.2,4,5,4h15.7c2.8,0,5-1.8,5-4v-34.6
		C163.1,261.5,160.9,259.7,158.1,259.7z"/>
	<path class="st2" d="M86.3,270.6H70.7c-2.7,0-5,1.8-5,4v12.7c0,2.2,2.2,4,5,4h15.7c2.7,0,5-1.8,5-4v-12.7
		C91.3,272.4,89.1,270.6,86.3,270.6z"/>
	<path class="st2" d="M122.2,270.6h-15.7c-2.7,0-5,1.8-5,4v12.7c0,2.2,2.2,4,5,4h15.7c2.7,0,5-1.8,5-4v-12.7
		C127.2,272.4,125,270.6,122.2,270.6z"/>
</g>
</svg>
