<?xml version="1.0" encoding="UTF-8"?>
<svg id="Layer_1" data-name="Layer 1" xmlns="http://www.w3.org/2000/svg" viewBox="0 0 103.01 103.33">
  <defs>
    <style>
      .cls-1 {
        fill: none;
        stroke: #231f20;
        stroke-linejoin: round;
        stroke-width: 3px;
      }

      .cls-2 {
        opacity: .89;
      }

      .cls-3 {
        font-family: ArialMT, Arial;
        font-size: 7px;
      }

      .cls-3, .cls-4 {
        fill: #fff;
      }

      .cls-5, .cls-6, .cls-7, .cls-8, .cls-9, .cls-4 {
        stroke-width: 0px;
      }

      .cls-6 {
        fill: #757e7e;
      }

      .cls-7 {
        fill: #3a3a3a;
      }

      .cls-8 {
        fill: #231f20;
      }

      .cls-9 {
        fill: #00a651;
      }
    </style>
  </defs>
  <g>
    <rect class="cls-6" x="1.76" y="62.08" width="99.5" height="39.5"/>
    <path class="cls-8" d="m101.01,62.33v39H2.01v-39h99m.5-.5H1.51v40h100v-40h0Z"/>
  </g>
  <g id="NAIyZ8.tif">
    <path class="cls-5" d="m1.67,76.43c.27.33.1.86.53,1.14.05-.14.1-.27.15-.4.12.94,1.06,1.61.75,2.64.38.05.27-.47.6-.36.25.08.26.34.26.54,0,.52.38.82.73,1.31,0-1.01-.01-1.9.01-2.79,0-.14-.16-.72.37-.26.17.15.2-.08.2-.19.02-.34-.03-.7.04-1.03.07-.34-.23-1,.62-.83.2.04.15-.3.15-.46.01-.87,0-1.75.01-2.62,0-.28-.08-.57.17-.93.41,1.4-.02,2.73.08,3.96.26-1,.56-2.07.37-3.21.07,0,.13,0,.2,0,.14.93.28,1.86.42,2.87.03-.26.06-.45.08-.64.04,0,.08-.01.11-.02.32,1.33.65,2.66.97,3.99.03,0,.06,0,.1,0,.03-.37.06-.74.11-1.31.19.46.31.75.43,1.03.27-.04.22-.44.48-.38.31.07.21.39.28.6.04.12.02.28.09.38.08.12.22.28.34.29.14.01-.02-.31.25-.34.04.41.08.82.12,1.24.42.01.46-.45.77-.53.19-.12.01.72.37.14,0,0,.09.02.13.06q.57.51.77-.37c.22.36.42.65.57.97.09.2.13.35.37.17.25-.18.45-.1.58.17.05.1.08.21.22.09.39-.35.7-.43.78.23.03.22.14.04.22.05.21.02.28-.13.32-.28.13-.49.17-.99.17-1.49,0-1.85-.05-3.7.26-5.53.3-.13.18.38.5.27.17-.87-.09-1.81.25-2.69.34,1.8-.04,3.64.34,5.53.17-.43-.04-.85.26-1.17.55.69,1.26,1.25,1.15,2.26.61-.65.31-1.45.56-2.3.51,1.29-.08,2.66.81,3.68.31-.46.03-1.07.37-1.65.35.62.11,1.24.39,1.78.23-.33.82-.19.79-.84.41.36.21.72.4,1.13.19-3.29.36-6.47,1.26-9.57v4.43c.54,0,.47-.32.48-.59,0-1.08,0-2.15.1-3.24.15,1.62.95,3.12.71,4.9.58-.4.35-.96.62-1.53.19.83.74,1.32.7,2.11.13-.17.23-.37.28-.36.33.06.09.41.28.59.04-.18.07-.36.12-.56.27.22.35.5.45.76.06.17.11.4.34.38.18-.01.2-.22.28-.35.14-.23,0-.72.38-.69.38.03.16.55.35.78.34-.15.31-.52.51-.96.23.81.36,1.53,1.04,1.84.83.38.87,1.18,1.16,1.88.15.36.62.58,1.03.64.45.07.44-.38.55-.65.55-1.45.66-2.96.67-4.49,0-.91-.23-1.86.33-2.71.52-.79.23-1.75.6-2.61.12,1.68.79,3.25.79,4.98.21-.34-.04-.76.31-1.12.35,1.98.34,3.97.96,5.86.11-.33-.06-.7.22-1.03.29.3.15.67.24.96.25-.45.72-.39,1.23.2.39-.68.2-1.46.4-2.15.22-.75.74-1.25,1.29-1.78.36.32.16.76.29,1.14.16-.3.18-.63.51-.9.04.37.08.69.12,1.01.36-1.02.08-2.1.26-3.13h.21v3.3c.57-.43.64-.9.82-1.46.36.7.19,1.32.3,2.02.04-.36.07-.61.1-.86.04,0,.09,0,.13,0,.02.45.04.9.07,1.48.04-.33.07-.53.11-.82.31.35.53.65.54,1.05.36-.04.19-.46.47-.51.21.18.07.44.15.66.15-.09.01-.36.3-.41.23.31.07.7.19,1.13.31-.74.66-.77.96-.08.3-.03.12-.42.4-.44.27.42.58.61,1.16.61.25,0,1.31-.49,1.07.69.36-.18.13-.58.39-.75.23.18.06.45.17.68.02-.27.05-.52.07-.76.04,0,.07-.02.11-.03.1.3.21.59.37,1.06.09-.5.58-.55.5-1.05.49.28.2.74.46,1.08.29-.34.25-.74.27-1.11.03-.45-.08-.96.1-1.34.77-1.6.16-3.32.49-4.95.17-.82.06-1.74.77-2.55.33,1.19-.09,2.38.33,3.56.17-.53,0-1.03.42-1.41v3.72c.23-.53.04-.9.39-1.38.08,1.17.27,2.16.49,3.15.31-.15.07-.52.4-.72v1.85c.26-.29.04-.61.45-.91-.17.92.65.97,1,1.43.25.33.14-.49.53-.1.22.22.34.48.49.77.69-.38.57-1.02.64-1.56.21-1.54.5-3.07.37-4.64.85-.89.25-2.07.61-3.14.28.26.21.53.22.77.02.79.04,1.59.02,2.38-.02.68-.03,1.32.78,1.6.08.03.14.15.17.25.06.19,0,.49.29.48.29,0,.04-.4.34-.51.52.41.22,1.06.4,1.69.28-.39.09-.78.27-1.14.24.14.04.63.5.57.23-.59-.23-1.46.69-1.89.19.84.03,1.7.2,2.54v-2.77s.1,0,.15,0v4.65c.22-1.55-.03-3.13.36-4.68.27.54.1,1.11.19,1.67.21-.12-.04-.42.26-.56v2.62s.09,0,.13,0c0-.66.02-1.33,0-1.99-.02-.6.3-.77.69-.42.51.43.37-.14.57-.32.21,1.06.49,2.04.4,2.86-.07-.34.58.11.66-.27.28.33.15.77.39,1.17.3-.44,0-.96.3-1.41.36.26.17.63.25.92.06.24.05.48.16.75.29.7.26-.15.5.08.16.24.06.95.83.87.07-1.54.02-3.14.25-4.7.23-1.56.47-3.1.44-4.9.52.57.24,1.08.47,1.66v-2.14c.05,0,.11,0,.16,0v1.82c.06,0,.11,0,.17,0v-1.52c.06,0,.12,0,.17,0v3.58c.07,0,.14,0,.22,0v-8.79c.07,0,.14,0,.22,0v3.86c.05,0,.1,0,.15.01.02-.18.04-.37.07-.55.04,0,.08,0,.12,0v3.73c.21-.4.03-.84.29-1.34.19,1.13.41,2.16.53,3.19.15,1.35.75,2.62.73,4,0,.39.55,0,.58.37.84-.27.78.47,1,.89.02.04.07.08.11.12.24-.14.02-.54.33-.63.23.01.07.36.21.36.78-1.79.64-3.71,1.12-5.67.35.56.15,1.08.35,1.54v-5.46c.34,1.93.37,3.88.6,5.82v-2.7c.44.57.33,1.06.44,1.52.32-.04.11-.45.37-.5.13.01.21.12.19.21-.24,1.09.65,1.9.73,2.92.03.33.42.69.73.9.23.16.49-.07.55-.37.05-.23.04-.46.06-.7.23-.02.23.14.24.25.06.56-.05,1.29.94.95.04-.01.16.23.29.42.1-.32.19-.59.27-.85.26.08.19.27.19.41,0,.34,0,.6.47.41.21-.09.16.15.16.25.02.26,0,.53,0,.8.29-.17.48-.39.44-.8.31.29.1.61.25.85.27-.25.34-.59.43-.96.22.2.09.46.19.65.43-.67.88-.28,1.3,0,.16.11.26.39.5.3.29-.11.19-.41.19-.63,0-1.72.47-3.37.85-5.02.08-.34.1-.68.1-1.02,0-1.93,0-3.86.07-5.8.22.36.28.75.27,1.15,0,1.4.12,2.75.57,4.11.33,1.01.68,2.12.42,3.23-.15.66.44,1,.49,1.55.43-.29.42.16.55.34.18.25.3.77.46.77.7.01.54.51.63.88.01.06.11.1.16.16.37.46.9.03,1.35.22.14.06.05-.55.14-.83.3-1.05.25-2.14.65-3.2.31-.81.77-1.63.66-2.64-.16-1.49.31-2.96.4-4.46.05-.85-.09-1.73.25-2.57.29,1.34.09,2.71.2,4.09.21-.28-.06-.66.41-.99-.08,2.47,1.32,4.5,1.51,6.85.12-.29-.04-.61.23-.91.3.72.68.53,1.16,0-.17.83.53,1.13.8,1.78.12-.34.21-.62.32-.92.27.19.08.47.23.65.07-.48-.06-.96.17-1.52.39.45.17.96.29,1.38.11-.39-.07-.83.27-1.31.28.53.13,1.01.2,1.49.16-.15.07-.42.33-.55.21.23.07.54.15.81.16-.42-.07-.9.25-1.4.29.44.15.87.22,1.26.03.15-.2.38.3.44,1.02.11,1.01.22,1.06-.76,0-.13.02-.25.11-.38.12,4.19.18,8.37-.03,12.56-.49-1.08-.58-1.15-.76-.9-.33.46-.99-.58-1.1.41-.26-.42-.1-.78-.22-1.22-.1.35-.17.6-.24.87-.75-.74-.48.34-.83.46-.25-.44-.06-1-.33-1.42-.12-.19,0-.6-.28-.58-.25.02-.53.25-.71.47-.34.4-.69.83-.53,1.5-.37-.21-.32-.51-.43-.84-.34.87-.07,1.71-.29,2.58-.41-.55-.15-1.12-.37-1.62v4.97h-.25v-3.57c-.51,2.13.43,4.42-1.06,6.45-.49-.51-.19-1.16-.36-1.72-.2.13-.01.42-.26.55-.04-.04-.14-.09-.13-.13.13-1.76-.7-3.41-.56-5.18.05-.68-.47-1.29-.54-2.02-.13-1.26-.52-2.48-.68-3.74-.11-.87-.7-.44-1.1-.55-.13.61-.95.58-1.1,1.19-.16.67-.48,1.43-.88,1.81-.87.84-.38,1.85-.69,2.74-.38-.09-.15-.49-.44-.68-.25.52.04,1.13-.26,1.69-.3-.4-.1-.84-.33-1.27-.42.78-.12,1.6-.48,2.32-.41-1.65-.02-3.36-.4-5.01-.03.22-.06.43-.09.65-.32-1.05-.74-2.06-.67-3.16-.7-.26-1.2.15-1.74.44-.18.1-.2.2-.23.36-.04.22.05.55-.26.59-.38.05-.41-.34-.53-.65-.32.26-.1.66-.36.92-.33-.32-.08-.77-.3-1.16-.25.27-.14.6-.2.88-.15.69-.76,1.1-1.07,1.7-.19.37-.52.08-.58-.3-.35.18-.31.53-.46.76-.43,0-.05-.83-.67-.63-.16.05-.17.03-.35.67-.15-.5-.28-.92-.47-1.57.04.74.02,1.25-.5,1.58-.13-.05.02-.3-.2-.51v3.7c-.52-.99-.11-2.1-.59-3.22,0,.57.12,1.05-.02,1.45-.48,1.34-.18,2.75-.36,4.15-.41-.14-.31-.43-.3-.63.06-1.14-.11-2.27-.18-3.4,0-.15.17-.55-.32-.32-.14.07-.16-.23-.16-.37-.03-1.31-.48-2.54-.64-3.82-.06-.48-.25-.72-.71-.29-.02.02-.03.04-.06.06-.35.18-.95-.32-1.06.18-.24,1.12-1.24,1.95-1.14,3.2.06.78.03,1.52-.53,2.24-.3.39-.17,1.12-.24,1.69-.01.09.03.31-.19.22-.06-.02-.07-.17-.19-.25v4.34c-.35-.04-.31-.26-.31-.43-.02-.75-.57-1.41-.39-2.19.01-.06-.03-.2-.07-.21-.93-.26-.56-1.05-.67-1.63-.21-1.11-.31-2.25-.68-3.33-.13-.39-.14-.78-.12-1.18.06-1.11-.18-2.2-.2-3.37-.25.41-.94.53-1.25.27-.03-.02-.04-.07-.06-.1,0,.08,0,.18-.03.23-.66.75-1.05,1.65-1.45,2.7-.32-.46-.18-.81-.27-1.22-.03.38-.06.66-.09,1.02-.25-.28-.11-.56-.25-.88-.04.58,0,1.12-.54,1.43-.31-.3-.06-.72-.29-1.15v1.93c-.32-.79-.18-1.61-.33-2.41v2.76c-.5-1.06-.29-2.18-.4-3.29-.2.87.2,1.81-.39,2.6-.33-.09-.12-.39-.28-.53-.1.43.07.89-.24,1.31-.07-1.08-.73-2.04-.58-3.17v2.74c-.34.35-.56-.54-.88.05-.04.08-.13-.17-.13-.27,0-.63,0-1.27,0-2.1-.14.63.06,1.14-.26,1.52-.22.27-.09,1.16-.83.6-.52.98-.42,2.1-.53,3.21-.36-.51-.68-1-.74-1.64-.03-.3.22-.84-.46-.84-.02,0-.07-.24-.06-.37.03-1.28-.65-2.43-.71-3.69-.01-.25-.13-.45-.46-.4-.58.08-1.2.06-1.21.93,0,.55-.21,1.07-.53,1.54-.3-.16-.21-.54-.5-.78-.16,1.3.1,2.6-.37,3.85v-2.5c-.44.94-.46,1.94-.49,3.07-.41-.35-.24-.7-.51-.97v3.87c-.08,0-.16,0-.24,0v-3.19c-.17,1.03-.17,2.07-.5,3.09v-1.8c-.24.76-.03,1.56-.31,2.33-.26-.05-.19-.24-.2-.37-.11-1.82-.28-3.63-.26-5.45,0-.63-.66-.81-.55-1.43.1-.56.03-1.16-.05-1.74-.02-.15-.13-.36-.58-.34-.6.02-1.09.11-1.57.39-.12.07-.12.34-.18.53-.33-.04-.15-.7-.6-.54-.42.15-.16.63-.36.9-.57-.05-.71-.44-.71-.96-.15.82-.71,1.47-.83,2.3v-1.7s-.06,0-.09,0c-.03.36-.06.72-.1,1.28-.14-.37-.21-.55-.33-.89-.11.44-.19.73-.28,1.08-.23-.14-.17-.34-.24-.58-.03.43-.06.76-.09,1.1-.04,0-.08,0-.12,0-.04-.44-.09-.87-.15-1.43-.34.46-.15.95-.5,1.4v-1.63c-.3.58.17,1.19-.49,1.49-.09.04-.11.33-.29.31-.31-.02-.13-.38-.3-.56.08,1.82-.59,3.52-.35,5.32-.1,0-.2,0-.29,0v-4.41c-.33-.03-.31.13-.32.24-.21,2.37-.47,4.74-.35,7.13.02.29.1.62-.18.91-.63-2.89-.25-5.82-.86-8.66-.32.04-.13.4-.37.49-.28-.12-.15-.4-.19-.6-.04-.24-.03-.52-.29-.62-.64-.25-1.03-.63-1.07-1.37-.01-.26-.29-.13-.43-.02-.16.14-.03.43-.29.57-.32-.23-.07-.59-.23-.86-.14.07-.05.23-.09.35-.06.21-.1.48-.34.47-.29-.02-.12-.35-.18-.44-.91,2.38-.68,4.96-.9,7.48-.04.41-.68.41-.51.98.11.36.13.83-.14,1.31-.37-.6-.07-1.22-.3-1.97-.35,1.15,0,2.2-.32,3.35-.33-.88-.79-1.48-.72-2.37.2-2.48-.66-4.91-.51-7.41.04-.6-.43-1.24-.87-1.71-.32-.35-.75-.48-1.07.13-.34.66-.5.64-1.09-.13.05.79-.17,1.35-.62,1.84-.15.16.05.54-.28.58-.38.04-.25-.4-.43-.56-.25.05-.11.52-.35.43-.45-.16-.55-.59-.5-1.09-.95.65-1.04.6-1.35-.62.14,1.65-.77,3.13-.68,4.77-.32-.73-.13-1.49-.31-2.22,0,.68,0,1.37,0,2.05,0,.71.05,1.41-.54,1.99-.41.41-.13,1.07-.38,1.68-.36-.33-.13-.75-.28-1.04-.23.03-.14.28-.34.4-.19-1.02,0-2.03-.22-3.02v2.15q-.68-.35-.86-3.64c-.2.43,0,.86-.25,1.31-.55-1.15-.52-2.33-.67-3.48,0-.03,0-.05,0-.08-.02-.54.21-1.21-.68-1.33-.13.44.07,1-.27,1.47-.27-.21-.14-.47-.19-.68-.02-.1,0-.37-.17-.24-.71.56-.26-.36-.59-.36,0,.69.01,1.4,0,2.11,0,.2-.02.49-.28.5-.34.02-.32-.31-.33-.53-.02-.55,0-1.1,0-1.74-1.15.93-.1,2.41-1.09,3.27-.17-.09-.1-.35-.24-.54-.03.08-.04.17-.08.19-.34.13-.04,1.03-.81.67-.09-.04-.09.21-.11.34-.03.26.04.53-.14.82-.32-.19-.24-.5-.24-.75,0-.33-.06-.62-.28-.88-.05-.06-.05-.19-.1-.2-.37-.09-.37-.09-.33-.57.09-.96-.05-1.9-.11-2.85-.09-1.31-.33-1.55-1.53-1.2-.4.12-1.14-.07-1.06.8-.37-.09-.17-.8-.72-.55-.1.05-.27-.14-.33.14-.07.28-.23.56-.63.33-.21-.12-.22.16-.3.19-.43.18-.61.89-1.28.58-.22-.1-.35.08-.31.31.1.64-.34,1.14-.39,1.77-.4-.26-.18-.68-.39-1.01-.65.32-.82.87-.81,1.53,0,.23,0,.5-.32.55-.37.05-.31-.27-.42-.54-.03.47-.06.87-.09,1.34-.27-.34-.08-.68-.27-1.05,0,.51.01.93,0,1.34,0,.16.08.4-.22.42-.26.02-.28-.18-.32-.36-.05-.28-.12-.56-.21-.99-.36.8-.66,1.45-.5,2.23-.37-.03-.37-.22-.36-.36.12-1.28-.14-2.54-.4-3.76-.14-.67-.31-1.37-.46-2.05-.14-.61-.78.1-.98-.39-.02-.05-.13.26-.19.41-.25.57-.4,1.17-.5,1.81-.07-.32-.15-.65-.23-1.03-.34.33-.61.65-.68,1.1-.03.23-.15.33-.39.23v-10.96Z"/>
  </g>
  <g>
    <rect class="cls-6" x="1.76" y="11.76" width="99.5" height="39.83"/>
    <path class="cls-8" d="m101.01,12.01v39.33H2.01V12.01h99m.5-.5H1.51v40.33h100V11.51h0Z"/>
  </g>
  <g id="_8rpC9N.tif" data-name="8rpC9N.tif">
    <path class="cls-5" d="m101.15,39.19c-.27.29,0,.81-.48,1.07-.18-.6-.21-1.2-.21-1.8,0-.57-.02-1.15,0-1.72,0-.42-.22-.82-.56-.81-.3,0-.63.37-.65.78-.01.49-.09.96-.25,1.42-.06.16-.01.42-.29.38-.2-.03-.17-.25-.18-.4-.01-.11,0-.23-.02-.34-.02-.17.07-.44-.15-.48-.28-.05-.18.25-.23.4-.04.13-.05.3-.23.28-.22-.02-.17-.24-.22-.37-.31.64-.77,1.22-.69,2,.01.14-.15.23-.3.21-.19-.03-.38-.08-.44-.27-.06-.17-.07-.36-.12-.63-.07.97.04,1.86-.13,2.82-.34-.33-.17-.65-.28-.94-.03.13-.06.25-.09.38-.25-.11-.05-.4-.25-.52-.18.17-.08.39-.12.58-.04.21.07.57-.21.58-.31.02-.23-.35-.23-.55.02-.44-.22-.78-.38-1.22-.28.33-.02.75-.31,1.08-.21-.3-.16-.63-.14-.92.05-.86-.09-1.68-.42-2.48-.07-.16-.12-.31-.3-.33-.22-.03-.39.13-.41.29-.09.56-.29,1.01-.64,1.51-.3.43-.46,1.17-.51,1.81-.01.13-.04.26-.23.39,0-.35,0-.7,0-1.05,0-.3-.15-.53-.43-.53-.31,0-.17.32-.19.49-.05.48.03.96-.09,1.43-.38.11-.13-.6-.42-.36-.22.18-.82.13-.62.71.04.12-.03.3-.2.31-.17.02-.22-.14-.24-.28-.06-.44-.23-.87-.35-1.28-.07-.24-.41-.59-.63-.88-.16-.21-.29-.45-.25-.7.17-.97-.35-1.82-.45-2.73-.04-.33-.54-.42-.85-.33-.96.28-.95,1.15-1.18,1.86-.1.3-.2.58-.36.86-.3-.2-.15-.55-.38-.77.06,1.1-.75,1.99-.67,3.09.01.17-.04.47-.26.36-.13-.06-.44-.09-.43-.38,0-.41,0-.82-.07-1.23-.27.48-.16.99-.18,1.49-.02.48,0,.97,0,1.45,0,.17.04.43-.23.42-.21,0-.17-.24-.19-.39-.18-.99-.32-1.98-.32-2.99,0-.08-.03-.16-.17-.24v3.32c-.06,0-.13.01-.19.02.04-.88-.17-1.71-.36-2.56,0,.28-.04.56,0,.82.19,1.08-.22,2.07-.54,3.04-.22.67-.1,1.31-.2,1.96-.03.17.04.45-.18.46-.31.02-.25-.3-.23-.47.11-.93-.07-1.94-.42-2.67-.5-1.05-.27-2.09-.53-3.1-.03-.12.13-.75-.4-.27-.09.08-.15-.12-.17-.22-.03-.17-.06-.35-.17-.54-.24.65-.61,1.23-.63,1.95-.04,1.56-.11,3.12-.17,4.68,0,.23-.03.46-.1.68-.11.34-.25.68-.66-.02-.04.67-.07,1.16-.1,1.65-.03,0-.07,0-.1,0-.03-.29-.05-.57-.1-1.01-.26.39-.11.72-.23,1.02-.23-.04-.08-.41-.39-.4-.24.44,0,.98-.19,1.42-.14.04-.2-.04-.2-.13-.05-1.37-.34-2.72-.5-4.08-.33-2.7-.23-5.39-.38-8.09,0-.07,0-.14,0-.21-.08-.35-.27-.76-.58-.79-.48-.05-.32.43-.37.72-.03.18-.07.45-.18.5-.71.31-.79.88-.75,1.54,0,.15.02.35-.16.42-.26.1-.18-.26-.35-.3-.32.48-.15,1.26-.92,1.46-.06.02-.05.3-.06.46,0,.18.02.37-.01.55-.06.29.16.79-.24.8-.31,0-.19-.5-.19-.77,0-.62-.07-1.22-.38-1.98-.35,1.19.25,2.38-.7,3.22-.06-.06-.16-.17-.32-.34-.23.94.05,1.87-.22,2.75-.29-.14-.12-.41-.32-.6-.28.5-.04,1.12-.37,1.58-.26-.09-.13-.33-.27-.54-.02.17-.03.29-.05.41-.02.13-.03.31-.21.3-.17,0-.2-.18-.2-.31-.01-.83,0-1.65-.03-2.48,0-.27.2-.66-.38-.69-.18,0-.17-.35-.17-.56,0-.75,0-1.51-.11-2.26,0,.48,0,.96,0,1.44,0,.13-.01.3-.19.32-.23.02-.25-.17-.25-.33,0-.76,0-1.52,0-2.27-.24-.11-.28.28-.46.16-.15-.1-.08-.29-.11-.45-.17-.76-.37-1.51-1.28-1.79-.02.21-.03.41-.06.61-.02.14-.02.3-.18.34-.18.04-.23-.13-.25-.26-.04-.31-.23-.25-.45-.24-.26.01-.41.04-.51.33-.06.19.03.9-.55.33-.08-.08-.1-.01-.13.05-.03.09-.09.18-.08.26.13,1.3-.52,2.5-.47,3.8.05,1.33-.42,2.61-.42,3.93,0,.13,0,.31-.2.29-.2-.01-.18-.24-.3-.39-.13.56-.25,1.1-.38,1.64-.04,0-.09,0-.13,0,0-.8-.02-1.61,0-2.41.06-1.57-.78-3.05-.4-4.65-.4.89-.12,1.85-.42,2.76-.47-1.34-.13-2.77-.44-4.14-.03.44-.06.87-.09,1.33-.24-.09-.2-.29-.2-.42-.03-.77-.44-1.23-1.08-1.6-.41-.23-.34-.83-.71-1.14-.19-.16-.24-.33-.53-.1-.16.13-.54.38-.77-.13-.1-.23-.53-.17-.7,0-.36.38-.7.72-1.25.81-.26.05-.37.31-.37.6,0,.34-.01.69-.03,1.03,0,.16,0,.36-.21.39-.22.03-.25-.17-.27-.33-.07-.43-.13-.85-.2-1.37-.18.23-.17.45-.13.62.18.65-.4.91-.7,1.24-.25.29-.47-.35-.93-.28.16.92-.16,1.83-.15,2.74,0,1.48-.35,2.9-.48,4.35-.05.55-.5,1.07-.43,1.7,0,.05-.11.16-.18.17-.59.06-.55.52-.6.91-.05.41.06.85-.14,1.4-.72-1.74-1.38-3.32-1.46-5.08-.02-.39.08-1.09-.26-1.09-.43,0-.09.65-.25.98,0,.02-.03.04-.05.06-.82-2.64-.34-5.39-.74-8.07-.25.12-.06.41-.27.55-.44-.25,0-.81-.45-1.16-.38-.3-.9.5-1.07-.29-.02.51-.13.94-.7,1.05-.1.02-.25.09-.28.17-.27.72-.6.32-.9.04-.14-.13-.17-.44-.44-.33-.24.09-.2.36-.18.55.12,1.04-.61,1.92-.49,2.98.04.41-.7.37-.82.82-.02.06-.22-.1-.24-.24-.03-.22-.05-.45-.09-.82-.26.39-.14.72-.24,1-.08.23-.09.58-.4.55-.26-.03-.22-.36-.26-.58-.01-.07-.03-.13-.04-.21-.18.21.06.69-.3.67-.34-.02-.21-.45-.21-.7-.02-.79,0-1.57,0-2.36-.07,0-.14,0-.22,0v2.96c-.07,0-.13,0-.2,0-.25-1.34-.07-2.72-.19-4.17-.21.21-.15.39-.18.55-.03.16.04.43-.22.42-.19,0-.31-.19-.35-.38-.04-.18-.04-.36-.06-.55-.02-.23-.16-.52-.34-.42-.56.29-.71-.22-1.02-.43-.17.12.05.47-.21.48-.27,0-.28-.32-.4-.51-.21.18-.13.43-.15.64-.03.31-.13.69-.41.74-.41.07-.25-.43-.44-.75-.02.27-.01.43-.04.59-.02.17,0,.42-.23.45-.23.02-.16-.23-.21-.37-.1-.28-.26-.25-.38-.04-.32.61-.49.31-.65-.15-.03.23-.03.42-.08.59-.06.24.02.58-.24.68-.36.14-.22-.41-.53-.43-.94.66-.36,1.76-.67,2.75-.32-.57-.53-1.03-.48-1.64-.29,1.18-.36,2.33-.6,3.41-.25,1.15-.03,2.38-.52,3.41-.31.67-.32,1.3-.38,1.96-.02.17.01.43-.23.43-.22,0-.15-.24-.18-.39-.02-.08-.02-.17-.03-.34-.08.17-.12.26-.17.37-.19-.24,0-.56-.19-.77-.04.03-.09.05-.1.08-.11.23.08.69-.29.65-.31-.03-.17-.46-.2-.72-.02-.2,0-.4-.11-.6v2.95c-.37-1.04-.46-2.1-.47-3.18,0-.59-.13-.64-.69-.31v-1.97c-.86,1.05-.12,2.3-.77,3.2-.07,0-.14-.01-.21-.02,0-.91.09-1.83-.02-2.72-.18-1.43-.37-2.85-.76-4.26-.22-.77-.07-1.64-.12-2.46-.04-.66-.22-1.29-.49-1.89-.08-.17-.14-.44-.39-.07-.17.25-.37.07-.46-.14-.07-.16-.07-.35-.11-.55-.29.03-.47.64-.82.13-.05-.07-.16.03-.18.13,0,.04,0,.09-.01.14-.06.4.18,1.01-.19,1.14-.37.14-.21-.74-.81-.69-.53,1.36-1.04,2.83-.94,4.54-.3-.3-.09-.63-.43-.99.1,1.47-.11,2.77-.38,4.21-.43-.76-.3-1.48-.39-2.24-.37.24-.32.53-.33.78-.05,1.35-.08,2.71-.13,4.06-.01.25.13.7-.19.69-.37,0-.23-.47-.24-.74-.02-2.32-.03-4.64-.05-6.96,0-.29.06-.59-.18-.87-.02.44-.04.87-.07,1.36-.25-.22-.26-.46-.25-.67.12-1.7-.44-3.36-.33-5.06,0-.09,0-.18,0-.28,0-.34-.06-.63-.48-.71-.49-.09-.36.35-.51.64-.23-.3-.51-.16-.7-.19-.57-.1-.25.29-.33.43-.07.11-.06.29-.24.27-.14-.01-.17-.15-.18-.26-.03-.18-.03-.37-.05-.55-.52.04-1.03.09-1.4.51-.06.07-.15.12-.17.19-.07.21,0,.53-.24.61-.33.12-.15-.32-.31-.39-.61-.27-1.43.07-1.91.76-.14-.1-.07-.25-.11-.38-.04-.04-.05-.02-.05.06,0,.09,0,.18,0,.28-.01.38-.57.89-.95.89-.45,0-.3-.38-.41-.64-.51.37-.14,1.02-.5,1.47-.18-.22-.23-.53-.46-.7-.11-.08-.17-.25-.33-.18-.15.07-.12.23-.12.37-.01.23.05.48-.02.68-.18.49.48,1.2-.49,1.54-.28.1-.3.91-.44,1.39-.02.08-.04.17-.07.34-.06-.13-.09-.18-.1-.24-.04-.25-.04-.62-.33-.59-.33.03-.15.41-.2.63-.08.36.19.94-.21,1.05-.32.08-.21-.56-.43-.82-.13-.15-.19-.35-.28-.53-.64,1.01-.09,2.19-.49,3.45-.24-1.12-.49-2.03-.45-2.99.04-.96.03-1.93-.17-3.06-.02.29-.02.41-.04.52-.05.23.12.61-.18.65-.27.04-.21-.33-.29-.54-.13-.33-.78-.3-.73-.86v2.25c-.07,0-.14.01-.21.02-.59-.8-.09-1.81-.43-2.81-.18.93-.74,1.49-1.19,2.19-.33-.3-.35-.66-.35-1.02,0-3.47.02-6.94.01-10.41,0-.69.54-1.21.51-1.89,0-.06.11-.15.18-.17.14-.02.18.11.21.22.15.42.1.86.13,1.3.36-.49.34-.02.45.24.26-.6.16-1.16.18-1.72.01-.34,0-.69,0-1.03,0-.16,0-.37.2-.38.27-.01.24.24.24.41,0,.92,0,1.84,0,2.76,0,.27-.06.55.11.89.4-.59.13-1.24.32-1.82.58.27.49.85.65,1.33.34-.92.38-1.9.41-2.85.06-1.97.02-3.95,0-5.93,0-.62.06-1.22.41-1.88v8c.18-.72,0-1.48.29-2.2.38,1.07.25,2.21.37,3.42.23-.36.11-.64.16-.89.04-.2-.12-.56.37-.42.22.06.16-.23.16-.37.01-.66,0-1.32,0-2.18.5.53.58,1.03.8,1.44.53.99.43,2.01.58,3.03.13.86.49.92,1.22.28.19.85.49,1.64,1,2.33.31.42.71.51,1.06.09.25-.3.54-.38.85-.28.35.11.15.48.26.71.05.1-.32.81.33.3.14-.11.18.08.19.19.03.23.04.45.06.69.3.06.45-.35.77-.15.34.21.54.09.52-.34,0-.19.08-.37.31-.39.26-.02.48.11.52.36.06.36.18.49.58.44.13-.02.61-.11.6.35,0,.05.06.12.11.14.13.05,1.33-.71,1.36-.85.03-.13.07-.27.07-.41-.05-1.47.32-2.91.33-4.38.02-1.2.02-2.49.36-3.59.43-1.41-.01-2.9.73-4.26.04.48.07.94.11,1.39.06,0,.12,0,.19,0,.17-.36.07-.71-.05-1.09-.13-.4-.1-.81.03-1.22.12-.39.18-.8.28-1.2.1-.39.21-.78.44-1.16v3.25s.08,0,.12,0c0-.41,0-.82,0-1.23,0-.14.05-.3.22-.29.17,0,.21.16.21.3.08,1.78.7,3.51.56,5.3-.1,1.26.29,2.43.46,3.63.05.32.09.64.09.96-.01.65.16,1.07.94.94.23-.04.24,0,.37-.5.15.22.11.58.5.63.23-.12-.05-.53.25-.61.3-.08.32.28.59.42.07-.29.17-.56.19-.84.03-.44.07-.86.43-1.19.1-.09.11-.29.13-.45.02-.18.01-.37.01-.55-.01-3.07.56-6.1.55-9.17,0-.99.01-1.98.02-2.96,0-.48,0-.96,0-1.57.42.25.63.58,1.05.52.29-.04.26.28.25.47-.04.53.2.92.54,1.29.19-.08.09-.29.19-.41.08-.09.15-.19.28-.17.18.02.2.17.21.31.02.16.04.32.02.48-.08.71.18,1.32.63,2.11v-2.01c.05,0,.11,0,.16,0v1.69c.38-.54.48-.24.53.03.19,1.08.59,2.12.5,3.24-.03.34,0,.68.08,1.03.01-.08.02-.16.04-.25.03-.21.09-.45.36-.41.23.04.19.28.2.46.02.32,0,.64.02.96.06.9.22,1.77.95,2.41.3.27.44.7.49,1.01.18,1.15.74,2.09,1.44,3.18-.16-.96.78-1.16.9-2,.36,1.23.11,2.34.26,3.44q.5-.41,1.04.33c.17-.05.19-.74.54-.16.04.06.15-.06.21-.13.12-.13.23-.32.39-.38.44-.19.7-.44.74-.96.02-.21.04-.67.56-.61.22.03.14-.29.15-.46.06-.94.1-1.88.16-2.82.01-.21-.07-.56.24-.55.29.01.21.36.21.58.01.98,0,1.96.11,2.95,0-1.06,0-2.11,0-3.17,0-.19-.07-.5.2-.52.35-.02.24.33.24.53.02.5,0,1.01.07,1.51-.24-1.24.4-2.35.5-3.55.23.03.05.4.27.37.24-.03.19-.28.21-.45.06-.6-.08-1.22.16-1.92.33.57.09,1.12.27,1.63.23-.06.09-.35.39-.46.06.7.08,1.39.2,2.06.3,1.65.31,3.32.48,4.97.02.2-.03.52.42.24.19-.12.1.46.29.65.36-.35.42-.31.67.52.17,0,.22-.29.4-.2.26.13.54.4.79.07.32-.42.82-.75.79-1.38,0-.15,0-.38.09-.45.32-.24.3.17.47.35.05-.2.11-.33.11-.46.08-2.49.45-4.95.51-7.45.04-1.99.05-4.02.49-6,.03-.15,0-.35.21-.39.17-.03.28.09.37.25.39.67.74,1.33.85,2.14.06.43.57.77.51,1.31v-2.04c.07-.01.13-.02.2-.04.46.59.02,1.45.5,2.11.27-.67-.16-1.49.57-2.01.22.49.19,1.03.24,1.55.08.79-.24,1.62.38,2.36.19.22.07.71.06,1.08-.02.92.32,1.7.92,2.37.22.25.16.51.18.77.06.72-.14,1.48.32,2.14.02-.02.06-.04.06-.07.07-.22-.09-.63.25-.62.33,0,.18.4.21.63.05.34.05.69.11,1.02.04.2.02.51.4.4.14-.04.16.07.16.16-.06.75.56,1.38.41,2.14-.08.41.33.41.45.64.08-.26.63.11.53-.4-.02-.08.07-.17.18-.18.15,0,.2.11.21.22.01.27,0,.55.06.84.05-.45.06-.91.52-1.17.29.2.07.54.23.76.17.02.16-.13.2-.23.36-.94.66-1.09,1.61-.65.35.17.39.08.41-.22.03-.76,0-1.57.22-2.25.37-1.17.06-2.4.43-3.47.27-.77.18-1.61.63-2.33.27,1.16.11,2.34.2,3.51.47-.51.48-.51.48-1.16,0-1.22,0-2.44,0-3.65,0-.44.04-.87.41-1.2.34.23-.02.87.54.91.21.02.11-.27.26-.44.46.8.45,1.68.47,2.51.05,2.41.02,4.83.03,7.24,0,.24-.07.49.16.82.03-.57.06-1.03.09-1.5.05,0,.11,0,.16,0,0,.32.03.64,0,.95-.07.5.27.69.62.71.45.03.22-.4.28-.63.03-.11,0-.23.02-.34.02-.14.02-.3.19-.33.23-.03.24.17.26.32.06.34.1.68.16,1.02.03.17-.02.41.22.45.2.03.23-.19.31-.32.01-.02.03-.04.03-.06-.03-.63.63-.52.94-.79.2-.17.46.32.64.57.18-.07.11-.23.12-.35.17-2.02.37-4.04.29-6.07,0-.21-.06-.46.27-.72v4.55c.06,0,.12,0,.17,0,0-.63-.07-1.28.01-1.9.21-1.56.41-3.12.47-4.7.02-.69.23-1.38.74-1.94.3-.32.06-.81.22-1.26.48.31.35.8.45,1.22.03-.61,0-1.24.64-1.75.32,2.23.57,4.43,1.03,6.52.11-.24-.1-.63.19-.98.82,2.19,1.1,4.44,1.5,6.75.22-.37.04-.76.24-1.16.09.58.38,1.02.33,1.58.21-.1.11-.49.41-.4.21.07.17.31.16.48-.04.63.66,1.05.37,1.76.58-.13.7-.47.7-.93-.02-1.22.02-2.44-.01-3.65-.08-2.76,0-5.52.22-8.26.15-1.89.3-3.78.36-5.68,0-.08.05-.16.16-.25.05.82.73,1.43.68,2.27,0,.11-.09.28.12.33.07-.42.52.31.59-.2.03-.23.19-.44.28-.61.74,1.83.38,3.79.6,5.68.18,1.48.03,2.94.11,4.41.31.03.1-.34.32-.34.27.85.78,1.65.69,2.6,0-.11,0-.22.03-.33.04-.26-.11-.67.19-.73.39-.07.11.47.42.64.1-1.27.26-2.51.22-3.76,0-.3-.18-.85.23-.86.33-.01.15.54.2.84.05.34-.06.72.26,1.08.25-.46,0-.96.25-1.42.4.56.7,1.1.64,1.78.02-.71.18-1.37.54-2.02v3.28c.56-.43.3-1,.66-1.4.28.57.14,1.2.42,1.71.3-.05.15-.34.3-.45.03.02.07.03.09.06.47.8.49,1.7.58,2.59,0,.07.02.18.06.19,1.15.34.39,1.33.7,1.95.12-.08.02-.43.25-.38.28.06.46.38.46.61.01.47.34.63.64.96.04-.39.07-.7.1-1.01.12.67.7,1.05,1.04,1.58v-1.56c.28.21.36.28.45-.11.31-1.27.21-2.55.26-3.83,0-.19-.06-.42.15-.56.25.15.07.43.2.6.58-1.33.1-2.95,1.21-4.19.28.34,0,.84.27,1.19.19.04.12-.37.29-.23.31.25.17.68.39,1.02v-4.71c.46.26.4.58.4.85.03,1.33.32,2.62.5,3.93.11.85.04,1.7.05,2.55,0,.37.03.73.27,1.04.36.47.51,1.01.45,1.6-.02.2,0,.41.23.63-.04-.49.43-.64.58-1.02.03.44.06.88.1,1.36.59-1.1,1.26-2.08,1.52-3.29.41.25.21.68.42.94.25.05.17-.33.44-.29-.01.5.32.92.35,1.42q.82-.48.97.25c.09-.24-.04-.5.12-.72q.38.28.41,2.08c.1-.45.21-.72.48-.91.31.18.11.53.27.76.19.06.35-.6.59-.06.31.71.72,1.24,1.44,1.79.06-.81.16-1.58.17-2.34,0-.67.13-1.32.18-1.99.02-.28.12-.49.43-.53v11.86Z"/>
  </g>
  <g>
    <rect class="cls-7" x="1.76" y="1.76" width="99.5" height="9.5"/>
    <path class="cls-8" d="m101.01,2.01v9H2.01V2.01h99m.5-.5H1.51v10h100V1.51h0Z"/>
  </g>
  <g>
    <rect class="cls-7" x="1.76" y="52.08" width="99.5" height="9.5"/>
    <path class="cls-8" d="m101.01,52.33v9H2.01v-9h99m.5-.5H1.51v10h100v-10h0Z"/>
  </g>
  <text class="cls-3" transform="translate(4.38 59.21)"><tspan x="0" y="0">SUPERGLUE</tspan></text>
  <rect class="cls-1" x="1.5" y="1.5" width="100.01" height="100.33" rx="3" ry="3"/>
  <g class="cls-2">
    <g>
      <path class="cls-8" d="m24.59,44.25c-.67,0-1.3-.26-1.77-.73l-.36-.36c-.97-.98-.97-2.56,0-3.54l15.16-15.16c.47-.47,1.1-.73,1.77-.73s1.3.26,1.77.73l.36.36c.47.47.73,1.1.73,1.77s-.26,1.3-.73,1.77l-15.16,15.16c-.47.47-1.1.73-1.77.73Z"/>
      <path class="cls-8" d="m39.38,24.24c.51,0,1.03.19,1.41.58l.36.36c.78.78.78,2.05,0,2.83l-15.16,15.16c-.39.39-.9.58-1.41.58s-1.03-.19-1.41-.58l-.36-.36c-.78-.78-.78-2.05,0-2.83l15.16-15.16c.39-.39.9-.58,1.41-.58m0-1c-.8,0-1.56.31-2.12.88l-15.16,15.16c-1.17,1.17-1.17,3.07,0,4.24l.36.36c.57.57,1.32.88,2.12.88s1.56-.31,2.12-.88l15.16-15.16c1.17-1.17,1.17-3.07,0-4.24l-.36-.36c-.57-.57-1.32-.88-2.12-.88h0Z"/>
    </g>
    <g>
      <path class="cls-8" d="m21.41,39.63c-.67,0-1.3-.26-1.77-.73L2.3,21.56c-.47-.47-.73-1.1-.73-1.77s.26-1.3.73-1.77l13.74-13.74c.47-.47,1.1-.73,1.77-.73s1.3.26,1.77.73l17.34,17.34c.47.47.73,1.1.73,1.77s-.26,1.3-.73,1.77l-13.74,13.74c-.47.47-1.1.73-1.77.73Z"/>
      <path class="cls-8" d="m17.81,4.06c.54,0,1.04.21,1.41.58l17.34,17.34c.78.78.78,2.05,0,2.83l-13.74,13.74c-.38.38-.88.58-1.41.58s-1.04-.21-1.41-.58L2.66,21.21c-.38-.38-.58-.88-.58-1.41s.21-1.04.58-1.41l13.74-13.74c.38-.38.88-.58,1.41-.58m0-1c-.77,0-1.54.29-2.12.88L1.95,17.68c-1.17,1.17-1.17,3.08,0,4.24l17.34,17.34c.58.58,1.35.88,2.12.88s1.54-.29,2.12-.88l13.74-13.74c1.17-1.17,1.17-3.08,0-4.24L19.93,3.93c-.58-.58-1.35-.88-2.12-.88h0Z"/>
    </g>
    <g>
      <polygon class="cls-8" points="36.94 44.42 27.02 42.86 40.43 29.44 42 39.38 50.54 51.15 47.46 51.19 36.94 44.42"/>
      <path class="cls-8" d="m40.09,30.49l1.4,8.84.04.24.14.19,7.9,10.9-1.97.02-10.3-6.63-.18-.11-.21-.03-8.84-1.4,6.23-6.23,5.79-5.79m.68-2.1l-7.18,7.18-7.62,7.62,10.78,1.7,10.56,6.79,4.2-.05-9.04-12.46-1.7-10.78h0Z"/>
    </g>
    <g>
      <rect class="cls-8" x="9.01" y="17.95" width="24.42" height="10.54" transform="translate(-10.21 21.81) rotate(-45)"/>
      <path class="cls-8" d="m26.12,11.57l6.75,6.75-16.56,16.56-6.75-6.75L26.12,11.57m0-1.41L8.15,28.13l8.16,8.16,17.97-17.97-8.16-8.16h0Z"/>
    </g>
  </g>
  <g>
    <g>
      <path class="cls-4" d="m24.59,42.05c-.67,0-1.3-.26-1.77-.73l-.36-.36c-.97-.98-.97-2.56,0-3.54l15.16-15.16c.47-.47,1.1-.73,1.77-.73s1.3.26,1.77.73l.36.36c.47.47.73,1.1.73,1.77s-.26,1.3-.73,1.77l-15.16,15.16c-.47.47-1.1.73-1.77.73Z"/>
      <path class="cls-8" d="m39.38,22.04c.51,0,1.03.19,1.41.58l.36.36c.78.78.78,2.05,0,2.83l-15.16,15.16c-.39.39-.9.58-1.41.58s-1.03-.19-1.41-.58l-.36-.36c-.78-.78-.78-2.05,0-2.83l15.16-15.16c.39-.39.9-.58,1.41-.58m0-1c-.8,0-1.56.31-2.12.88l-15.16,15.16c-1.17,1.17-1.17,3.07,0,4.24l.36.36c.57.57,1.32.88,2.12.88s1.56-.31,2.12-.88l15.16-15.16c1.17-1.17,1.17-3.07,0-4.24l-.36-.36c-.57-.57-1.32-.88-2.12-.88h0Z"/>
    </g>
    <g>
      <path class="cls-4" d="m21.41,37.44c-.67,0-1.3-.26-1.77-.73L2.3,19.37c-.47-.47-.73-1.1-.73-1.77s.26-1.3.73-1.77L16.04,2.09c.47-.47,1.1-.73,1.77-.73s1.3.26,1.77.73l17.34,17.34c.47.47.73,1.1.73,1.77s-.26,1.3-.73,1.77l-13.74,13.74c-.47.47-1.1.73-1.77.73Z"/>
      <path class="cls-8" d="m17.81,1.86c.54,0,1.04.21,1.41.58l17.34,17.34c.38.38.58.88.58,1.41s-.21,1.04-.58,1.41l-13.74,13.74c-.38.38-.88.58-1.41.58s-1.04-.21-1.41-.58L2.66,19.01c-.78-.78-.78-2.05,0-2.83L16.4,2.45c.38-.38.88-.58,1.41-.58m0-1c-.77,0-1.54.29-2.12.88L1.95,15.48c-1.17,1.17-1.17,3.08,0,4.24l17.34,17.34c.58.58,1.35.88,2.12.88s1.54-.29,2.12-.88l13.74-13.74c1.17-1.17,1.17-3.08,0-4.24L19.93,1.74c-.58-.58-1.35-.88-2.12-.88h0Z"/>
    </g>
    <g>
      <path class="cls-4" d="m37.05,42.3c-.06-.04-.14-.07-.21-.09l-9.81-1.55,13.41-13.41,1.55,9.81c.01.08.05.16.09.22l10.44,13.85-3.05.03-12.43-8.87Z"/>
      <path class="cls-8" d="m40.09,28.29l1.4,8.84c.03.16.09.32.19.45l9.85,13.06-1.9.02-12.29-8.77c-.13-.09-.27-.15-.42-.17l-8.84-1.4,6.23-6.23,5.79-5.79m.68-2.1l-7.18,7.18-7.62,7.62,10.78,1.7,12.56,8.96,4.2-.05-11.04-14.64-1.7-10.78h0Z"/>
    </g>
    <g>
      <rect class="cls-9" x="9.01" y="15.76" width="24.42" height="10.54" transform="translate(-8.66 21.16) rotate(-45)"/>
      <path class="cls-8" d="m26.12,9.38l6.75,6.75-16.56,16.56-6.75-6.75L26.12,9.38m0-1.41L8.15,25.94l8.16,8.16,17.97-17.97-8.16-8.16h0Z"/>
    </g>
  </g>
</svg>