<?xml version="1.0" encoding="UTF-8"?><svg id="Logo" xmlns="http://www.w3.org/2000/svg" viewBox="0 0 1920 1080"><defs><style>.cls-1{stroke-width:3px;}.cls-1,.cls-2,.cls-3{fill:#fff;stroke:#fff;stroke-miterlimit:10;}.cls-2{stroke-width:5px;}</style></defs><g id="Lines"><g id="Bottom"><rect class="cls-3" x="236.2" y="683.71" width="1412.16" height="5.01"/><path class="cls-3" d="M1648.86,689.22H235.7v-6.01H1648.86v6.01Zm-1412.16-1H1647.86v-4.01H236.7v4.01Z"/></g><g id="Top"><line class="cls-3" x1="236.29" y1="387.7" x2="1648.18" y2="387.7"/><rect class="cls-3" x="236.29" y="385.19" width="1411.88" height="5.01"/></g></g><g id="Circles"><path class="cls-3" d="M1637.4,345.48c-24.74-58.48-60.15-111.01-105.25-156.11-45.1-45.1-97.63-80.51-156.11-105.25-60.55-25.61-124.87-38.6-191.17-38.6s-130.62,12.99-191.17,38.6c-17.8,7.53-35.04,16.05-51.69,25.53-16.65-9.48-33.9-18-51.7-25.53-60.55-25.61-124.87-38.6-191.17-38.6s-130.62,12.99-191.17,38.6c-58.48,24.74-111.01,60.15-156.11,105.25-45.1,45.1-80.51,97.63-105.25,156.11-25.61,60.55-38.6,124.87-38.6,191.17s12.99,130.62,38.6,191.17c24.74,58.48,60.15,111.01,105.25,156.11,45.1,45.1,97.63,80.52,156.11,105.25,60.55,25.61,124.87,38.6,191.17,38.6s130.62-12.99,191.17-38.6c17.8-7.53,35.04-16.05,51.7-25.53,16.65,9.48,33.9,18,51.69,25.53,60.55,25.61,124.87,38.6,191.17,38.6s130.62-12.99,191.17-38.6c58.48-24.74,111.01-60.15,156.11-105.25,45.1-45.1,80.52-97.63,105.25-156.11,25.61-60.55,38.6-124.87,38.6-191.17s-12.99-130.62-38.6-191.17Zm-452.53,671.51c-84.03,0-163.09-21.7-231.88-59.77,33.83-20.44,65.09-44.95,93.42-73.28,45.1-45.1,80.52-97.63,105.25-156.11,6.13-14.49,11.53-29.2,16.2-44.1h-11.44c-36.45,113.07-113.74,207.97-214.43,267.22-100.68-59.25-177.98-154.15-214.43-267.22h-11.44c4.68,14.9,10.08,29.61,16.21,44.1,24.74,58.48,60.15,111.01,105.25,156.11,28.33,28.33,59.6,52.84,93.42,73.28-68.79,38.08-147.84,59.77-231.88,59.77-264.86,0-480.34-215.48-480.34-480.34S434.27,56.31,699.13,56.31c84.03,0,163.09,21.7,231.88,59.77-33.83,20.44-65.09,44.95-93.43,73.28-45.1,45.1-80.51,97.63-105.25,156.11-6.13,14.49-11.53,29.2-16.21,44.1h11.44c36.45-113.07,113.74-207.97,214.43-267.22,100.68,59.25,177.98,154.15,214.43,267.22h11.44c-4.68-14.9-10.08-29.61-16.2-44.1-24.74-58.48-60.15-111.01-105.25-156.11-28.33-28.33-59.6-52.84-93.43-73.28,68.79-38.08,147.84-59.77,231.88-59.77,264.86,0,480.34,215.48,480.34,480.34s-215.48,480.34-480.34,480.34Z"/><path class="cls-3" d="M1184.87,1028.28c-66.37,0-130.75-13-191.37-38.64-17.6-7.45-34.93-15.99-51.5-25.41-16.57,9.42-33.9,17.97-51.5,25.41-60.61,25.64-125,38.64-191.37,38.64s-130.75-13-191.37-38.64c-58.54-24.76-111.12-60.21-156.27-105.36-45.15-45.15-80.6-97.72-105.36-156.27-25.64-60.62-38.64-125-38.64-191.37s13-130.75,38.64-191.37c24.76-58.54,60.21-111.12,105.36-156.27,45.15-45.15,97.72-80.6,156.27-105.36,60.61-25.64,125-38.64,191.37-38.64s130.75,13,191.37,38.64c17.6,7.44,34.92,15.99,51.5,25.41,16.58-9.42,33.9-17.97,51.5-25.41,60.61-25.64,125-38.64,191.37-38.64s130.75,13,191.37,38.64c58.55,24.76,111.12,60.21,156.27,105.36,45.15,45.15,80.6,97.73,105.36,156.27,25.64,60.61,38.64,125,38.64,191.37s-13,130.75-38.64,191.37c-24.76,58.54-60.21,111.12-105.36,156.27-45.15,45.15-97.72,80.6-156.27,105.36-60.61,25.64-125,38.64-191.37,38.64Zm-242.87-65.2l.25,.14c16.61,9.46,33.99,18.04,51.64,25.5,60.49,25.59,124.75,38.56,190.98,38.56s130.49-12.97,190.98-38.56c58.42-24.71,110.89-60.09,155.95-105.14,45.06-45.06,80.43-97.53,105.14-155.95,25.59-60.49,38.56-124.75,38.56-190.98s-12.97-130.49-38.56-190.98c-24.71-58.42-60.09-110.89-105.14-155.95-45.06-45.06-97.53-80.43-155.95-105.14-60.49-25.59-124.74-38.56-190.98-38.56s-130.49,12.97-190.98,38.56c-17.65,7.47-35.03,16.05-51.64,25.5l-.25,.14-.25-.14c-16.62-9.46-33.99-18.04-51.64-25.5-60.49-25.59-124.74-38.56-190.98-38.56s-130.49,12.97-190.98,38.56c-58.42,24.71-110.89,60.09-155.95,105.14-45.06,45.06-80.43,97.53-105.14,155.95-25.59,60.49-38.56,124.74-38.56,190.98s12.97,130.49,38.56,190.98c24.71,58.43,60.09,110.89,105.14,155.95,45.06,45.06,97.53,80.43,155.95,105.14,60.49,25.59,124.74,38.56,190.98,38.56s130.49-12.97,190.98-38.56c17.65-7.47,35.03-16.05,51.64-25.5l.25-.14Zm242.87,54.41c-81.14,0-161.4-20.69-232.12-59.84l-.76-.42,.74-.45c33.74-20.39,65.14-45.02,93.33-73.21,45.06-45.05,80.43-97.52,105.14-155.95,5.98-14.14,11.36-28.74,15.98-43.4h-10.4c-18.07,55.91-46.03,107.58-83.1,153.6-36.79,45.67-81.01,83.87-131.44,113.54l-.25,.15-.25-.15c-50.42-29.67-94.65-67.87-131.44-113.54-37.07-46.02-65.03-97.7-83.1-153.6h-10.39c4.63,14.67,10,29.26,15.98,43.4,24.71,58.42,60.09,110.89,105.14,155.95,28.19,28.19,59.59,52.82,93.33,73.21l.74,.45-.76,.42c-70.72,39.15-150.98,59.84-232.12,59.84-265.14,0-480.84-215.7-480.84-480.84S434,55.81,699.13,55.81c81.14,0,161.4,20.69,232.12,59.84l.76,.42-.74,.45c-33.74,20.39-65.14,45.02-93.33,73.21-45.06,45.06-80.43,97.53-105.14,155.95-5.98,14.14-11.36,28.73-15.98,43.4h10.39c18.07-55.91,46.03-107.58,83.1-153.6,36.79-45.67,81.01-83.87,131.44-113.55l.25-.15,.25,.15c50.43,29.67,94.65,67.88,131.44,113.55,37.07,46.02,65.03,97.7,83.1,153.6h10.4c-4.63-14.67-10-29.27-15.98-43.4-24.71-58.43-60.09-110.9-105.14-155.95-28.19-28.19-59.59-52.82-93.33-73.21l-.74-.45,.76-.42c70.72-39.15,150.98-59.84,232.12-59.84,265.14,0,480.84,215.7,480.84,480.84s-215.7,480.84-480.84,480.84Zm-230.88-60.3c70.38,38.79,150.2,59.29,230.88,59.29,264.58,0,479.84-215.25,479.84-479.84S1449.45,56.81,1184.87,56.81c-80.68,0-160.49,20.5-230.88,59.29,33.53,20.34,64.74,44.87,92.78,72.91,45.15,45.15,80.6,97.72,105.36,156.27,6.08,14.38,11.54,29.23,16.22,44.14l.2,.65h-12.49l-.11-.35c-36.12-112.03-112.1-206.77-213.95-266.79-101.85,60.02-177.84,154.76-213.95,266.79l-.11,.35h-12.49l.2-.65c4.68-14.92,10.14-29.77,16.22-44.14,24.76-58.54,60.21-111.12,105.36-156.27,28.04-28.04,59.25-52.56,92.78-72.91-70.38-38.79-150.2-59.29-230.88-59.29-264.58,0-479.84,215.25-479.84,479.84s215.25,479.84,479.84,479.84c80.68,0,160.49-20.5,230.88-59.29-33.53-20.34-64.74-44.87-92.78-72.91-45.15-45.15-80.6-97.72-105.36-156.27-6.08-14.38-11.54-29.23-16.22-44.14l-.2-.65h12.49l.11,.35c36.12,112.03,112.1,206.77,213.95,266.79,101.86-60.02,177.84-154.76,213.95-266.79l.11-.35h12.49l-.2,.65c-4.68,14.92-10.14,29.77-16.22,44.14-24.76,58.55-60.21,111.12-105.36,156.27-28.04,28.04-59.25,52.56-92.78,72.91Z"/></g><g><line class="cls-2" x1="322.88" y1="555.48" x2="1594.66" y2="555.48"/><g><path class="cls-1" d="M413.5,526.49h-6.21v-74.88l-30.6,74.88h-6.52l-30.53-74.88v74.88h-6.21v-85.05h9.01l30.99,77.29,31.22-77.29h8.85v85.05Z"/><path class="cls-1" d="M443.87,526.49h-6.21v-85.05h6.21v85.05Z"/><path class="cls-1" d="M530.32,464.2c-.57-2.54-1.63-4.91-3.18-7.11-1.55-2.2-3.5-4.12-5.83-5.75-2.33-1.63-5.01-2.91-8.04-3.84s-6.28-1.4-9.75-1.4c-4.92,0-9.39,.8-13.4,2.41-4.01,1.61-7.43,3.97-10.25,7.11-2.82,3.13-5,7.04-6.52,11.73-1.53,4.69-2.29,10.14-2.29,16.35s.76,11.69,2.29,16.43c1.53,4.74,3.7,8.71,6.52,11.92,2.82,3.21,6.21,5.64,10.18,7.3,3.96,1.66,8.38,2.49,13.24,2.49,7.35,0,13.41-1.64,18.18-4.93,4.76-3.29,7.71-8.09,8.85-14.41h6.45c-.62,4.04-1.89,7.65-3.81,10.84-1.92,3.18-4.32,5.86-7.22,8.04-2.9,2.17-6.24,3.83-10.02,4.97-3.78,1.14-7.87,1.71-12.27,1.71-6.01,0-11.41-1.05-16.19-3.15-4.79-2.1-8.87-5.06-12.23-8.89-3.37-3.83-5.96-8.48-7.77-13.94-1.81-5.46-2.72-11.59-2.72-18.37s.91-12.79,2.72-18.18c1.81-5.38,4.41-9.98,7.81-13.79,3.39-3.81,7.48-6.73,12.27-8.78,4.79-2.04,10.16-3.07,16.12-3.07,4.09,0,7.99,.6,11.69,1.79,3.7,1.19,7.03,2.86,9.98,5.01,2.95,2.15,5.44,4.71,7.46,7.69,2.02,2.98,3.42,6.25,4.19,9.83h-6.45Z"/><path class="cls-1" d="M620.66,526.49h-6.29v-42.33h-52.43v42.33h-6.21v-85.05h6.21v36.51h52.43v-36.51h6.29v85.05Z"/><path class="cls-1" d="M710.14,526.49h-7.46l-10.41-27.34h-41.87c-1.5,4.3-3.13,8.84-4.89,13.63-1.76,4.79-3.44,9.36-5.05,13.71h-6.6c2.8-7.35,5.55-14.55,8.27-21.59,2.72-7.04,5.42-14.05,8.12-21.01,2.69-6.96,5.4-13.97,8.12-21.01,2.72-7.04,5.48-14.21,8.27-21.52h8.78l34.72,85.13Zm-19.65-32.23l-19.73-47.3-18.72,47.3h38.45Z"/><path class="cls-1" d="M784.94,526.49h-61.44v-85.05h59.34v6.21h-53.13v31.46h49.79v6.21h-49.79v34.95h55.23v6.21Z"/><path class="cls-1" d="M854.3,526.49h-50.1v-85.05h6.21v78.84h43.89v6.21Z"/><path class="cls-1" d="M941.06,441.44h30.91c4.14,0,8.13,.34,11.96,1.01,3.83,.67,7.21,1.9,10.14,3.69,2.92,1.79,5.25,4.21,6.99,7.26,1.73,3.06,2.6,6.94,2.6,11.65,0,8.34-2.63,14.68-7.88,19.03-5.26,4.35-12.93,6.52-23.03,6.52h-25.48v35.89h-6.21v-85.05Zm6.21,42.95h25.71c4.35,0,8.05-.41,11.11-1.24,3.05-.83,5.55-2.04,7.49-3.65,1.94-1.6,3.35-3.59,4.23-5.94,.88-2.36,1.32-5.09,1.32-8.19,0-3.78-.66-6.84-1.98-9.17s-3.11-4.13-5.36-5.4c-2.25-1.27-4.86-2.11-7.81-2.52-2.95-.41-6.06-.62-9.32-.62h-25.4v36.74Z"/><path class="cls-1" d="M1030.46,526.49h-6.21v-85.05h6.21v85.05Z"/><path class="cls-1" d="M1116.68,526.49h-61.44v-85.05h59.34v6.21h-53.13v31.46h49.79v6.21h-49.79v34.95h55.23v6.21Z"/><path class="cls-1" d="M1203.91,526.49h-6.84l-8.47-22.6c-.83-2.17-1.75-4.22-2.76-6.14-1.01-1.92-2.19-3.58-3.53-5.01-1.35-1.42-2.89-2.55-4.62-3.38-1.74-.83-3.77-1.24-6.1-1.24h-29.75v38.37h-6.21v-85.05h38.29c3.57,0,7.03,.32,10.37,.97,3.34,.65,6.32,1.8,8.93,3.46,2.61,1.66,4.7,3.95,6.25,6.87,1.55,2.93,2.33,6.67,2.33,11.22,0,2.85-.35,5.5-1.05,7.96-.7,2.46-1.76,4.66-3.18,6.6-1.42,1.94-3.24,3.6-5.44,4.97-2.2,1.37-4.78,2.37-7.73,2.99,1.6,1.24,2.92,2.43,3.96,3.57,1.04,1.14,1.93,2.36,2.68,3.65,.75,1.29,1.42,2.72,2.02,4.27,.59,1.55,1.28,3.34,2.06,5.36l8.78,23.15Zm-62.06-44.58h29.52c4.19,0,7.79-.31,10.8-.93,3-.62,5.48-1.64,7.42-3.07,1.94-1.42,3.38-3.27,4.31-5.55,.93-2.28,1.4-5.07,1.4-8.39,0-5.85-1.85-10.03-5.55-12.54-3.7-2.51-9.23-3.77-16.58-3.77h-31.3v34.25Z"/><path class="cls-1" d="M1273.19,526.49h-50.1v-85.05h6.21v78.84h43.89v6.21Z"/><path class="cls-1" d="M1322.51,528.05c-5.08,0-9.41-.53-13.01-1.59-3.6-1.06-6.59-2.5-8.97-4.31-2.38-1.81-4.27-3.93-5.67-6.37-1.4-2.43-2.46-5.02-3.18-7.77-.73-2.74-1.18-5.59-1.36-8.54-.18-2.95-.27-5.83-.27-8.62v-49.4h6.21v49.17c0,6.47,.58,11.74,1.75,15.81,1.17,4.07,2.87,7.24,5.13,9.52,2.25,2.28,5,3.83,8.23,4.66,3.24,.83,6.95,1.24,11.15,1.24s8.01-.41,11.3-1.24c3.29-.83,6.03-2.39,8.23-4.7,2.2-2.3,3.87-5.48,5.01-9.51,1.14-4.04,1.71-9.29,1.71-15.77v-49.17h6.21v49.4c0,5.85-.49,11.08-1.48,15.69-.98,4.61-2.69,8.5-5.13,11.69-2.43,3.18-5.75,5.62-9.94,7.3s-9.5,2.52-15.92,2.52Z"/><path class="cls-1" d="M1386.05,526.49h-6.21v-85.05h6.21v85.05Z"/><path class="cls-1" d="M1441.97,528.05c-5.75,0-10.77-.61-15.07-1.83-4.3-1.22-7.91-2.95-10.84-5.2-2.93-2.25-5.17-4.97-6.72-8.16s-2.46-6.77-2.72-10.76h6.14c.62,3.83,1.79,7.02,3.5,9.55,1.71,2.54,3.82,4.56,6.33,6.06,2.51,1.5,5.37,2.56,8.58,3.18,3.21,.62,6.63,.93,10.25,.93s7.18-.4,10.21-1.2c3.03-.8,5.62-1.97,7.77-3.5,2.15-1.53,3.79-3.37,4.93-5.51,1.14-2.15,1.71-4.57,1.71-7.26,0-2.85-.49-5.24-1.48-7.19-.98-1.94-2.64-3.64-4.97-5.09-2.33-1.45-5.4-2.74-9.2-3.88-3.81-1.14-8.53-2.3-14.18-3.5-4.66-1.04-8.66-2.23-12-3.57-3.34-1.35-6.1-2.91-8.27-4.7-2.17-1.79-3.78-3.83-4.82-6.14-1.04-2.3-1.55-4.98-1.55-8.04,0-3.31,.7-6.34,2.1-9.09,1.4-2.74,3.38-5.1,5.94-7.07,2.56-1.97,5.64-3.5,9.24-4.58,3.6-1.09,7.57-1.63,11.92-1.63s8.34,.5,11.96,1.51c3.62,1.01,6.8,2.47,9.51,4.39,2.72,1.92,4.92,4.25,6.6,6.99,1.68,2.75,2.76,5.85,3.22,9.32h-5.98c-.57-2.28-1.5-4.4-2.8-6.37-1.29-1.97-2.96-3.66-5.01-5.09-2.05-1.42-4.48-2.54-7.3-3.34-2.82-.8-6.05-1.2-9.67-1.2-7.61,0-13.37,1.4-17.28,4.19-3.91,2.8-5.87,6.63-5.87,11.5,0,2.23,.36,4.17,1.09,5.83,.72,1.66,1.95,3.15,3.69,4.47,1.73,1.32,4.03,2.49,6.87,3.5,2.85,1.01,6.39,1.96,10.64,2.84,2.49,.52,5.05,1.06,7.69,1.63,2.64,.57,5.22,1.24,7.73,2.02,2.51,.78,4.91,1.74,7.18,2.87,2.28,1.14,4.26,2.54,5.94,4.19,1.68,1.66,3.03,3.64,4.04,5.94,1.01,2.3,1.51,5.04,1.51,8.19,0,3.62-.76,6.95-2.29,9.98s-3.65,5.64-6.37,7.84c-2.72,2.2-5.96,3.91-9.71,5.13-3.75,1.22-7.83,1.83-12.23,1.83Z"/><path class="cls-1" d="M1522.52,528.05c-5.75,0-10.77-.61-15.07-1.83-4.3-1.22-7.91-2.95-10.84-5.2-2.93-2.25-5.17-4.97-6.72-8.16s-2.46-6.77-2.72-10.76h6.14c.62,3.83,1.79,7.02,3.5,9.55,1.71,2.54,3.82,4.56,6.33,6.06,2.51,1.5,5.37,2.56,8.58,3.18,3.21,.62,6.63,.93,10.25,.93s7.18-.4,10.21-1.2c3.03-.8,5.62-1.97,7.77-3.5,2.15-1.53,3.79-3.37,4.93-5.51,1.14-2.15,1.71-4.57,1.71-7.26,0-2.85-.49-5.24-1.48-7.19-.98-1.94-2.64-3.64-4.97-5.09-2.33-1.45-5.4-2.74-9.2-3.88-3.81-1.14-8.53-2.3-14.18-3.5-4.66-1.04-8.66-2.23-12-3.57-3.34-1.35-6.1-2.91-8.27-4.7-2.17-1.79-3.78-3.83-4.82-6.14-1.04-2.3-1.55-4.98-1.55-8.04,0-3.31,.7-6.34,2.1-9.09,1.4-2.74,3.38-5.1,5.94-7.07,2.56-1.97,5.64-3.5,9.24-4.58,3.6-1.09,7.57-1.63,11.92-1.63s8.34,.5,11.96,1.51c3.62,1.01,6.8,2.47,9.51,4.39,2.72,1.92,4.92,4.25,6.6,6.99,1.68,2.75,2.76,5.85,3.22,9.32h-5.98c-.57-2.28-1.5-4.4-2.8-6.37-1.29-1.97-2.96-3.66-5.01-5.09-2.05-1.42-4.48-2.54-7.3-3.34-2.82-.8-6.05-1.2-9.67-1.2-7.61,0-13.37,1.4-17.28,4.19-3.91,2.8-5.87,6.63-5.87,11.5,0,2.23,.36,4.17,1.09,5.83,.72,1.66,1.95,3.15,3.69,4.47,1.73,1.32,4.03,2.49,6.87,3.5,2.85,1.01,6.39,1.96,10.64,2.84,2.49,.52,5.05,1.06,7.69,1.63,2.64,.57,5.22,1.24,7.73,2.02,2.51,.78,4.91,1.74,7.18,2.87,2.28,1.14,4.26,2.54,5.94,4.19,1.68,1.66,3.03,3.64,4.04,5.94,1.01,2.3,1.51,5.04,1.51,8.19,0,3.62-.76,6.95-2.29,9.98s-3.65,5.64-6.37,7.84c-2.72,2.2-5.96,3.91-9.71,5.13-3.75,1.22-7.83,1.83-12.23,1.83Z"/><path class="cls-1" d="M1580.7,526.49h-6.21v-85.05h6.21v85.05Z"/></g><g><path class="cls-3" d="M326.89,640.25c-3.84,0-7.19-.41-10.06-1.22-2.87-.81-5.28-1.97-7.23-3.47-1.95-1.5-3.45-3.32-4.49-5.45-1.04-2.13-1.64-4.52-1.81-7.18h4.1c.41,2.56,1.19,4.69,2.33,6.38,1.14,1.69,2.55,3.04,4.23,4.05,1.68,1,3.59,1.71,5.73,2.13,2.14,.42,4.43,.62,6.85,.62s4.8-.27,6.82-.8c2.02-.54,3.75-1.31,5.19-2.33,1.43-1.02,2.53-2.25,3.29-3.68,.76-1.43,1.14-3.05,1.14-4.85,0-1.9-.33-3.5-.99-4.8-.66-1.3-1.76-2.43-3.32-3.4-1.56-.97-3.6-1.83-6.15-2.59-2.54-.76-5.7-1.54-9.47-2.33-3.11-.69-5.78-1.49-8.01-2.39-2.23-.9-4.07-1.95-5.52-3.14-1.45-1.19-2.52-2.56-3.22-4.1-.69-1.54-1.04-3.33-1.04-5.37,0-2.21,.47-4.23,1.4-6.07s2.26-3.41,3.97-4.72c1.71-1.31,3.77-2.33,6.17-3.06,2.4-.73,5.06-1.09,7.96-1.09s5.57,.34,7.99,1.01c2.42,.67,4.54,1.65,6.35,2.93,1.82,1.28,3.28,2.84,4.41,4.67,1.12,1.83,1.84,3.91,2.15,6.22h-3.99c-.38-1.52-1-2.94-1.87-4.25-.86-1.31-1.98-2.45-3.35-3.4-1.37-.95-2.99-1.69-4.88-2.23-1.88-.54-4.04-.8-6.46-.8-5.08,0-8.93,.93-11.54,2.8-2.61,1.87-3.92,4.43-3.92,7.68,0,1.49,.24,2.78,.73,3.89,.48,1.11,1.3,2.1,2.46,2.98,1.16,.88,2.69,1.66,4.59,2.33,1.9,.67,4.27,1.31,7.1,1.89,1.66,.35,3.37,.71,5.13,1.09,1.76,.38,3.48,.83,5.16,1.35,1.68,.52,3.28,1.16,4.8,1.92,1.52,.76,2.84,1.69,3.97,2.8,1.12,1.11,2.02,2.43,2.7,3.97,.67,1.54,1.01,3.36,1.01,5.47,0,2.42-.51,4.64-1.53,6.66-1.02,2.02-2.44,3.77-4.25,5.24-1.82,1.47-3.98,2.61-6.48,3.42-2.51,.81-5.23,1.22-8.17,1.22Z"/><path class="cls-3" d="M383.83,581.38c3.87,0,7.45,.69,10.74,2.07,3.28,1.38,6.11,3.35,8.48,5.91,2.37,2.56,4.22,5.64,5.55,9.23,1.33,3.6,2,7.61,2,12.03s-.66,8.4-1.97,12.03c-1.31,3.63-3.16,6.75-5.52,9.36-2.37,2.61-5.19,4.63-8.45,6.07-3.27,1.43-6.87,2.15-10.81,2.15s-7.55-.72-10.84-2.15c-3.29-1.43-6.11-3.45-8.48-6.04-2.37-2.59-4.21-5.71-5.52-9.33-1.31-3.63-1.97-7.66-1.97-12.08s.67-8.49,2-12.08c1.33-3.6,3.19-6.66,5.58-9.21,2.39-2.54,5.21-4.5,8.48-5.89,3.27-1.38,6.85-2.07,10.76-2.07Zm-.05,54.72c3.25,0,6.25-.56,9-1.69,2.75-1.12,5.13-2.77,7.13-4.95,2-2.18,3.56-4.85,4.67-8.01,1.11-3.16,1.66-6.77,1.66-10.81s-.56-7.68-1.69-10.79c-1.12-3.11-2.68-5.73-4.67-7.86-1.99-2.13-4.34-3.73-7.05-4.82-2.71-1.09-5.68-1.63-8.89-1.63s-6.3,.55-9.05,1.66c-2.75,1.11-5.13,2.72-7.13,4.85-2.01,2.13-3.57,4.75-4.69,7.86-1.12,3.11-1.69,6.69-1.69,10.74s.55,7.65,1.66,10.81c1.11,3.16,2.65,5.83,4.64,8.01,1.99,2.18,4.36,3.83,7.11,4.95,2.75,1.12,5.75,1.69,9,1.69Z"/><path class="cls-3" d="M444.26,640.25c-3.39,0-6.28-.35-8.69-1.06-2.4-.71-4.4-1.67-5.99-2.88-1.59-1.21-2.85-2.63-3.79-4.25-.93-1.62-1.64-3.35-2.13-5.19-.48-1.83-.79-3.73-.91-5.71-.12-1.97-.18-3.89-.18-5.76v-32.99h4.15v32.83c0,4.32,.39,7.84,1.17,10.55,.78,2.71,1.92,4.83,3.42,6.35,1.5,1.52,3.34,2.56,5.5,3.11,2.16,.55,4.64,.83,7.44,.83s5.35-.28,7.55-.83c2.2-.55,4.03-1.6,5.5-3.14,1.47-1.54,2.58-3.66,3.35-6.35,.76-2.7,1.14-6.21,1.14-10.53v-32.83h4.15v32.99c0,3.91-.33,7.4-.99,10.48-.66,3.08-1.8,5.68-3.42,7.81-1.63,2.13-3.84,3.75-6.64,4.88s-6.35,1.69-10.63,1.69Z"/><path class="cls-3" d="M524.54,639.21h-5.45l-34.65-51.86v51.86h-4.15v-56.79h5.71l34.39,51.76v-51.76h4.15v56.79Z"/><path class="cls-3" d="M584.76,610.37c0,19.22-9.56,28.84-28.68,28.84h-17.17v-56.74h17.17c9.58,0,16.75,2.31,21.52,6.92,4.77,4.62,7.16,11.61,7.16,20.98Zm-4.41,0c0-3.73-.37-7.07-1.12-10.01-.74-2.94-2.05-5.44-3.92-7.49-1.87-2.06-4.37-3.62-7.49-4.69-3.13-1.07-7.08-1.61-11.85-1.61h-12.91v48.49h12.91c4.74,0,8.67-.55,11.8-1.66,3.13-1.11,5.63-2.72,7.49-4.85,1.87-2.13,3.18-4.71,3.94-7.75,.76-3.04,1.14-6.52,1.14-10.42Z"/><path class="cls-3" d="M689.62,610.37c0,19.22-9.56,28.84-28.68,28.84h-17.17v-56.74h17.17c9.58,0,16.75,2.31,21.52,6.92,4.77,4.62,7.16,11.61,7.16,20.98Zm-4.41,0c0-3.73-.37-7.07-1.12-10.01-.74-2.94-2.05-5.44-3.92-7.49-1.87-2.06-4.37-3.62-7.49-4.69-3.13-1.07-7.08-1.61-11.85-1.61h-12.91v48.49h12.91c4.74,0,8.67-.55,11.8-1.66,3.13-1.11,5.63-2.72,7.49-4.85,1.87-2.13,3.18-4.71,3.94-7.75,.76-3.04,1.14-6.52,1.14-10.42Z"/><path class="cls-3" d="M743.1,639.21h-41.02v-56.79h39.62v4.15h-35.47v21h33.24v4.15h-33.24v23.34h36.88v4.15Z"/><path class="cls-3" d="M776.65,640.25c-3.84,0-7.19-.41-10.06-1.22-2.87-.81-5.28-1.97-7.23-3.47-1.95-1.5-3.45-3.32-4.49-5.45-1.04-2.13-1.64-4.52-1.81-7.18h4.1c.41,2.56,1.19,4.69,2.33,6.38,1.14,1.69,2.55,3.04,4.23,4.05,1.68,1,3.59,1.71,5.73,2.13,2.14,.42,4.43,.62,6.85,.62s4.8-.27,6.82-.8c2.02-.54,3.75-1.31,5.19-2.33,1.43-1.02,2.53-2.25,3.29-3.68,.76-1.43,1.14-3.05,1.14-4.85,0-1.9-.33-3.5-.99-4.8-.66-1.3-1.76-2.43-3.32-3.4-1.56-.97-3.6-1.83-6.15-2.59-2.54-.76-5.7-1.54-9.47-2.33-3.11-.69-5.78-1.49-8.01-2.39-2.23-.9-4.07-1.95-5.52-3.14-1.45-1.19-2.52-2.56-3.22-4.1-.69-1.54-1.04-3.33-1.04-5.37,0-2.21,.47-4.23,1.4-6.07s2.26-3.41,3.97-4.72c1.71-1.31,3.77-2.33,6.17-3.06,2.4-.73,5.06-1.09,7.96-1.09s5.57,.34,7.99,1.01c2.42,.67,4.54,1.65,6.35,2.93,1.82,1.28,3.28,2.84,4.41,4.67,1.12,1.83,1.84,3.91,2.15,6.22h-3.99c-.38-1.52-1-2.94-1.87-4.25-.86-1.31-1.98-2.45-3.35-3.4-1.37-.95-2.99-1.69-4.88-2.23-1.88-.54-4.04-.8-6.46-.8-5.08,0-8.93,.93-11.54,2.8-2.61,1.87-3.92,4.43-3.92,7.68,0,1.49,.24,2.78,.73,3.89,.48,1.11,1.3,2.1,2.46,2.98,1.16,.88,2.69,1.66,4.59,2.33,1.9,.67,4.27,1.31,7.1,1.89,1.66,.35,3.37,.71,5.13,1.09,1.76,.38,3.48,.83,5.16,1.35,1.68,.52,3.28,1.16,4.8,1.92,1.52,.76,2.84,1.69,3.97,2.8,1.12,1.11,2.02,2.43,2.7,3.97,.67,1.54,1.01,3.36,1.01,5.47,0,2.42-.51,4.64-1.53,6.66-1.02,2.02-2.44,3.77-4.25,5.24-1.82,1.47-3.98,2.61-6.48,3.42-2.51,.81-5.23,1.22-8.17,1.22Z"/><path class="cls-3" d="M815.5,639.21h-4.15v-56.79h4.15v56.79Z"/><path class="cls-3" d="M856.31,640.25c-4.05,0-7.74-.71-11.07-2.13-3.34-1.42-6.2-3.41-8.58-5.99-2.39-2.58-4.23-5.69-5.52-9.34-1.3-3.65-1.94-7.7-1.94-12.16s.66-8.54,1.97-12.14c1.31-3.6,3.15-6.67,5.52-9.21,2.37-2.54,5.19-4.49,8.48-5.86,3.28-1.37,6.92-2.05,10.89-2.05,3.11,0,6.02,.39,8.71,1.17s5.1,1.88,7.21,3.32c2.11,1.44,3.85,3.16,5.24,5.16,1.38,2.01,2.33,4.24,2.85,6.69h-4.46c-.28-1.66-.94-3.22-2-4.69-1.06-1.47-2.43-2.76-4.12-3.86-1.69-1.11-3.67-1.99-5.91-2.64-2.25-.66-4.72-.99-7.42-.99-3.32,0-6.36,.54-9.13,1.61-2.77,1.07-5.14,2.67-7.13,4.8-1.99,2.13-3.54,4.75-4.64,7.88-1.11,3.13-1.66,6.73-1.66,10.81s.55,7.65,1.66,10.81c1.11,3.16,2.65,5.83,4.64,8.01,1.99,2.18,4.37,3.83,7.16,4.95,2.78,1.12,5.85,1.69,9.21,1.69,4.7,0,8.78-.9,12.24-2.7,3.46-1.8,6.38-4.29,8.76-7.47v-10.22h-15.66v-4.15h19.81v27.64h-2.39l-1.82-7.57c-1.31,1.59-2.77,2.93-4.36,4.02-1.59,1.09-3.28,1.97-5.06,2.65-1.78,.67-3.64,1.17-5.58,1.48-1.94,.31-3.91,.47-5.91,.47Z"/><path class="cls-3" d="M938.52,639.21h-5.45l-34.65-51.86v51.86h-4.15v-56.79h5.71l34.39,51.76v-51.76h4.15v56.79Z"/><path class="cls-3" d="M1046.34,635.53l-2.85,2.9-8.19-8.09c-1.35,1.94-2.75,3.54-4.2,4.8-1.45,1.26-2.95,2.27-4.49,3.03s-3.12,1.3-4.75,1.61c-1.63,.31-3.27,.47-4.93,.47-2.42,0-4.69-.42-6.79-1.24-2.11-.83-3.94-1.98-5.5-3.45s-2.78-3.21-3.68-5.21c-.9-2-1.35-4.17-1.35-6.48,0-6.78,3.89-12.5,11.67-17.17-2.59-2.8-4.55-5.28-5.86-7.44-1.31-2.16-1.97-4.02-1.97-5.58,0-1.9,.32-3.6,.96-5.08,.64-1.49,1.51-2.72,2.62-3.71,1.11-.99,2.43-1.74,3.97-2.26,1.54-.52,3.19-.78,4.95-.78s3.47,.3,5.03,.91c1.56,.61,2.91,1.44,4.07,2.49s2.07,2.31,2.72,3.76,.99,3.01,.99,4.67c0,1.21-.28,2.42-.83,3.63-.55,1.21-1.33,2.39-2.33,3.55-1,1.16-2.2,2.27-3.6,3.32-1.4,1.06-2.95,2.01-4.64,2.88l16.96,16.75c.42-.86,.81-1.85,1.19-2.96,.38-1.11,.73-2.31,1.04-3.6,.31-1.3,.56-2.65,.75-4.05,.19-1.4,.3-2.81,.34-4.23h3.89c-.1,6.67-1.52,12.46-4.25,17.37l9.08,9.18Zm-32.67-26.61c-1.35,.9-2.63,1.93-3.84,3.09-1.21,1.16-2.26,2.39-3.16,3.68-.9,1.3-1.61,2.62-2.13,3.97s-.78,2.66-.78,3.94c0,1.83,.35,3.53,1.04,5.08s1.65,2.9,2.88,4.02c1.23,1.12,2.7,2.01,4.41,2.64,1.71,.64,3.6,.96,5.68,.96,5.36,0,10.13-3.03,14.31-9.08l-18.41-18.31Zm10.74-15.25c0-2.59-.8-4.58-2.41-5.96-1.61-1.38-3.67-2.07-6.2-2.07-1.38,0-2.58,.23-3.6,.67-1.02,.45-1.87,1.06-2.54,1.82-.67,.76-1.18,1.62-1.5,2.57-.33,.95-.49,1.95-.49,2.98,0,.86,.22,1.76,.65,2.7,.43,.93,1,1.87,1.71,2.8,.71,.93,1.49,1.86,2.33,2.78,.85,.92,1.69,1.81,2.51,2.67,1.35-.83,2.6-1.63,3.76-2.41,1.16-.78,2.16-1.59,3.01-2.44s1.52-1.76,2.02-2.75,.75-2.1,.75-3.34Z"/><path class="cls-3" d="M1149.81,639.21h-4.98l-6.95-18.26h-27.96c-1,2.87-2.09,5.9-3.27,9.1-1.18,3.2-2.3,6.25-3.37,9.15h-4.41c1.87-4.91,3.71-9.72,5.52-14.42s3.62-9.38,5.42-14.03c1.8-4.65,3.6-9.33,5.42-14.03,1.81-4.7,3.66-9.49,5.52-14.37h5.86l23.18,56.84Zm-13.12-21.52l-13.17-31.58-12.5,31.58h25.67Z"/><path class="cls-3" d="M1180.36,640.25c-3.39,0-6.28-.35-8.69-1.06-2.4-.71-4.4-1.67-5.99-2.88-1.59-1.21-2.85-2.63-3.79-4.25-.93-1.62-1.64-3.35-2.13-5.19-.48-1.83-.79-3.73-.91-5.71s-.18-3.89-.18-5.76v-32.99h4.15v32.83c0,4.32,.39,7.84,1.17,10.55,.78,2.71,1.92,4.83,3.42,6.35,1.5,1.52,3.34,2.56,5.5,3.11,2.16,.55,4.64,.83,7.44,.83s5.35-.28,7.55-.83c2.2-.55,4.03-1.6,5.5-3.14,1.47-1.54,2.58-3.66,3.34-6.35s1.14-6.21,1.14-10.53v-32.83h4.15v32.99c0,3.91-.33,7.4-.99,10.48-.66,3.08-1.8,5.68-3.42,7.81-1.63,2.13-3.84,3.75-6.64,4.88s-6.34,1.69-10.63,1.69Z"/><path class="cls-3" d="M1262.67,610.37c0,19.22-9.56,28.84-28.68,28.84h-17.17v-56.74h17.17c9.58,0,16.75,2.31,21.52,6.92,4.77,4.62,7.16,11.61,7.16,20.98Zm-4.41,0c0-3.73-.37-7.07-1.12-10.01-.74-2.94-2.05-5.44-3.92-7.49-1.87-2.06-4.37-3.62-7.5-4.69-3.13-1.07-7.08-1.61-11.85-1.61h-12.91v48.49h12.91c4.74,0,8.67-.55,11.8-1.66s5.63-2.72,7.49-4.85c1.87-2.13,3.18-4.71,3.94-7.75,.76-3.04,1.14-6.52,1.14-10.42Z"/><path class="cls-3" d="M1280.97,639.21h-4.15v-56.79h4.15v56.79Z"/><path class="cls-3" d="M1321.48,581.38c3.87,0,7.45,.69,10.74,2.07,3.28,1.38,6.11,3.35,8.48,5.91s4.22,5.64,5.55,9.23c1.33,3.6,2,7.61,2,12.03s-.66,8.4-1.97,12.03c-1.31,3.63-3.16,6.75-5.52,9.36-2.37,2.61-5.19,4.63-8.45,6.07s-6.87,2.15-10.81,2.15-7.56-.72-10.84-2.15c-3.29-1.43-6.11-3.45-8.48-6.04-2.37-2.59-4.21-5.71-5.52-9.33-1.31-3.63-1.97-7.66-1.97-12.08s.67-8.49,2-12.08c1.33-3.6,3.19-6.66,5.58-9.21,2.39-2.54,5.21-4.5,8.48-5.89,3.27-1.38,6.85-2.07,10.76-2.07Zm-.05,54.72c3.25,0,6.25-.56,9-1.69,2.75-1.12,5.13-2.77,7.13-4.95,2-2.18,3.56-4.85,4.67-8.01,1.11-3.16,1.66-6.77,1.66-10.81s-.56-7.68-1.69-10.79c-1.12-3.11-2.68-5.73-4.67-7.86-1.99-2.13-4.34-3.73-7.05-4.82-2.71-1.09-5.68-1.63-8.89-1.63s-6.3,.55-9.05,1.66c-2.75,1.11-5.13,2.72-7.13,4.85-2.01,2.13-3.57,4.75-4.69,7.86-1.12,3.11-1.69,6.69-1.69,10.74s.55,7.65,1.66,10.81c1.11,3.16,2.65,5.83,4.64,8.01,1.99,2.18,4.36,3.83,7.11,4.95,2.75,1.12,5.75,1.69,9,1.69Z"/><path class="cls-3" d="M1445.95,586.57h-19.86v52.64h-4.15v-52.64h-19.66v-4.15h43.67v4.15Z"/><path class="cls-3" d="M1497.25,639.21h-41.02v-56.79h39.62v4.15h-35.47v21h33.25v4.15h-33.25v23.34h36.88v4.15Z"/><path class="cls-3" d="M1551.18,597.61c-.38-1.69-1.09-3.28-2.13-4.75s-2.33-2.75-3.89-3.84c-1.56-1.09-3.34-1.95-5.37-2.57-2.02-.62-4.19-.93-6.51-.93-3.29,0-6.27,.54-8.95,1.61-2.68,1.07-4.96,2.65-6.85,4.75-1.88,2.09-3.34,4.7-4.36,7.83-1.02,3.13-1.53,6.77-1.53,10.92s.51,7.81,1.53,10.97c1.02,3.16,2.47,5.82,4.36,7.96,1.88,2.14,4.15,3.77,6.79,4.88,2.65,1.11,5.59,1.66,8.84,1.66,4.91,0,8.96-1.1,12.14-3.29,3.18-2.2,5.15-5.4,5.91-9.62h4.3c-.42,2.7-1.26,5.11-2.54,7.24-1.28,2.13-2.89,3.92-4.82,5.37s-4.17,2.56-6.69,3.32c-2.52,.76-5.26,1.14-8.19,1.14-4.01,0-7.62-.7-10.81-2.1s-5.92-3.38-8.17-5.94c-2.25-2.56-3.98-5.66-5.19-9.31-1.21-3.65-1.82-7.74-1.82-12.27s.6-8.54,1.82-12.14c1.21-3.6,2.95-6.67,5.21-9.21s5-4.49,8.19-5.86c3.2-1.37,6.79-2.05,10.76-2.05,2.73,0,5.33,.4,7.81,1.19,2.47,.79,4.69,1.91,6.66,3.34,1.97,1.44,3.63,3.15,4.98,5.13s2.28,4.17,2.8,6.56h-4.3Z"/><path class="cls-3" d="M1611.5,639.21h-4.2v-28.27h-35.01v28.27h-4.15v-56.79h4.15v24.38h35.01v-24.38h4.2v56.79Z"/></g></g></svg>