<?xml version="1.0" encoding="UTF-8"?>
<svg id="Layer_1" data-name="Layer 1" xmlns="http://www.w3.org/2000/svg" viewBox="0 0 800 533.63">
  <defs>
    <style>
      .cls-1 {
        fill: #fff;
      }
    </style>
  </defs>
  <path class="cls-1" d="m533.18,0c-48.51,0-93.99,12.95-133.18,35.57C360.81,12.95,315.32,0,266.82,0,119.46,0,0,119.46,0,266.82s119.46,266.82,266.82,266.82c48.51,0,93.99-12.95,133.18-35.57,39.19,22.62,84.68,35.57,133.18,35.57,147.36,0,266.82-119.46,266.82-266.82S680.54,0,533.18,0Zm-170.3,494.25c-30.42,12.86-62.74,19.39-96.07,19.39s-65.65-6.52-96.07-19.39c-29.39-12.43-55.79-30.23-78.46-52.9-22.67-22.67-40.47-49.07-52.9-78.46-12.86-30.42-19.39-62.74-19.39-96.07s6.52-65.65,19.39-96.07c12.43-29.39,30.23-55.79,52.9-78.46,22.67-22.67,49.07-40.47,78.46-52.9,30.42-12.86,62.74-19.39,96.07-19.39s65.65,6.52,96.07,19.39c6.09,2.58,12.05,5.4,17.87,8.43-69.14,48.21-114.39,128.32-114.39,219s45.25,170.79,114.39,219c-5.83,3.03-11.78,5.85-17.87,8.43Zm37.12-435.29c14.86,9.54,28.68,20.67,41.34,33.33,22.67,22.67,40.47,49.07,52.9,78.46,12.86,30.42,19.39,62.74,19.39,96.07s-6.52,65.65-19.39,96.07c-12.43,29.39-30.23,55.79-52.9,78.46-12.66,12.66-26.49,23.8-41.34,33.33-14.86-9.54-28.68-20.67-41.34-33.33-22.67-22.67-40.47-49.07-52.9-78.46-12.86-30.42-19.39-62.74-19.39-96.07s6.52-65.65,19.39-96.07c12.43-29.39,30.23-55.79,52.9-78.46,12.66-12.66,26.49-23.8,41.34-33.33Zm307.71,382.39c-22.67,22.67-49.07,40.47-78.46,52.9-30.42,12.86-62.74,19.39-96.07,19.39s-65.65-6.52-96.07-19.39c-6.09-2.58-12.05-5.4-17.87-8.43,69.14-48.21,114.39-128.32,114.39-219s-45.25-170.79-114.39-219c5.83-3.03,11.78-5.85,17.87-8.43,30.42-12.86,62.74-19.39,96.07-19.39s65.65,6.52,96.07,19.39c29.39,12.43,55.79,30.23,78.46,52.9,22.67,22.67,40.47,49.07,52.9,78.46,12.86,30.42,19.39,62.74,19.39,96.07s-6.52,65.65-19.39,96.07c-12.43,29.39-30.23,55.79-52.9,78.46Z"/>
</svg>