<svg id="Logo" xmlns="http://www.w3.org/2000/svg" viewBox="0 0 1466 981.26"><defs><style>.cls-1,.cls-2,.cls-3{fill:#fff;}.cls-2,.cls-3{stroke:#fff;stroke-miterlimit:10;}.cls-2{stroke-width:5px;}.cls-3{stroke-width:3px;}</style></defs><g id="Lines"><g id="Bottom"><rect class="cls-1" x="28.64" y="637.39" width="1409.28" height="5"/><path class="cls-1" d="M1648.68,689.41H238.4v-6H1648.68Zm-1409.28-1H1647.68v-4H239.4Z" transform="translate(-210.26 -46.52)"/></g><g id="Top"><line class="cls-1" x1="28.74" y1="341.98" x2="1437.74" y2="341.98"/><rect class="cls-1" x="28.74" y="339.48" width="1409" height="5"/></g></g><g id="Circles"><path class="cls-1" d="M1637.25,346.37A490.11,490.11,0,0,0,943.26,111a490.32,490.32,0,1,0,0,852.26,490.37,490.37,0,0,0,694-616.91Zm-451.61,670.14a476.41,476.41,0,0,1-231.41-59.66A492.52,492.52,0,0,0,1152.5,727.93q9.18-21.69,16.17-44h-11.42c-36.37,112.84-113.51,207.55-214,266.68a481.77,481.77,0,0,1-214-266.68H717.85q7,22.3,16.18,44A492.52,492.52,0,0,0,932.3,956.85a476.44,476.44,0,0,1-231.41,59.66c-264.32,0-479.35-215-479.35-479.36s215-479.36,479.35-479.36A476.54,476.54,0,0,1,932.3,117.44,492.63,492.63,0,0,0,734,346.37q-9.18,21.69-16.18,44h11.42a481.78,481.78,0,0,1,214-266.67c100.48,59.13,177.62,153.84,214,266.67h11.42q-7-22.29-16.17-44A492.63,492.63,0,0,0,954.23,117.44a476.51,476.51,0,0,1,231.41-59.65c264.31,0,479.35,215,479.35,479.36S1450,1016.51,1185.64,1016.51Z" transform="translate(-210.26 -46.52)"/><path class="cls-1" d="M1185.64,1027.78a487.65,487.65,0,0,1-191-38.56,493.14,493.14,0,0,1-51.4-25.36,493,493,0,0,1-51.39,25.36A490.75,490.75,0,0,1,509.92,85.08a492.2,492.2,0,0,1,382,0,494,494,0,0,1,51.39,25.36,495.11,495.11,0,0,1,51.4-25.36,490.75,490.75,0,0,1,381.95,904.14A487.63,487.63,0,0,1,1185.64,1027.78ZM943.26,962.71l.25.14a493,493,0,0,0,51.54,25.45A489.75,489.75,0,0,0,1376.22,86a489.5,489.5,0,0,0-432.71,25.45l-.25.14-.24-.14A493,493,0,0,0,891.48,86,489.75,489.75,0,0,0,510.31,988.3a491.21,491.21,0,0,0,381.17,0A493,493,0,0,0,943,962.85Zm242.38,54.3A479.42,479.42,0,0,1,954,957.29l-.76-.42.74-.44A492.16,492.16,0,0,0,1152,727.74c6-14.11,11.33-28.68,16-43.32h-10.37A482.29,482.29,0,0,1,943.52,951l-.26.14L943,951a482.29,482.29,0,0,1-214.1-266.61H718.54c4.61,14.64,10,29.21,16,43.32A492.16,492.16,0,0,0,932.56,956.43l.73.44-.75.42A479.42,479.42,0,0,1,700.89,1017C436.3,1017,221,801.74,221,537.15S436.3,57.29,700.89,57.29A479.42,479.42,0,0,1,932.54,117l.75.42-.73.44A492.16,492.16,0,0,0,734.49,346.56c-6,14.11-11.34,28.68-16,43.32h10.37A482.2,482.2,0,0,1,943,123.27l.25-.15.26.15a482.2,482.2,0,0,1,214.1,266.61H1168c-4.62-14.64-10-29.21-16-43.32A492.16,492.16,0,0,0,954,117.87l-.74-.44L954,117a479.42,479.42,0,0,1,231.65-59.72c264.59,0,479.85,215.27,479.85,479.86S1450.23,1017,1185.64,1017ZM955.23,956.83A478.54,478.54,0,0,0,1185.64,1016c264,0,478.85-214.82,478.85-478.86S1449.68,58.29,1185.64,58.29a478.53,478.53,0,0,0-230.41,59.17A493.13,493.13,0,0,1,1153,346.17c6.07,14.35,11.52,29.17,16.19,44.06l.21.65h-12.47l-.11-.35A479.82,479.82,0,0,0,943.26,124.28,479.84,479.84,0,0,0,729.75,390.53l-.11.35H717.17l.21-.65c4.67-14.89,10.12-29.71,16.19-44.06A493.13,493.13,0,0,1,931.3,117.46,478.53,478.53,0,0,0,700.89,58.29C436.85,58.29,222,273.11,222,537.15S436.85,1016,700.89,1016A478.54,478.54,0,0,0,931.3,956.83a493,493,0,0,1-197.73-228.7c-6.07-14.35-11.52-29.17-16.19-44.06l-.21-.65h12.47l.11.35A479.82,479.82,0,0,0,943.26,950a479.8,479.8,0,0,0,213.52-266.24l.11-.35h12.47l-.21.65C1164.48,699,1159,713.78,1153,728.13a493,493,0,0,1-197.73,228.7Z" transform="translate(-210.26 -46.52)"/></g><line class="cls-2" x1="115.15" y1="509.42" x2="1384.32" y2="509.42"/><path class="cls-3" d="M415.85,527h-6.2V452.29L379.11,527h-6.52l-30.46-74.72V527h-6.2V442.14h9l30.93,77.12L407,442.14h8.84Z" transform="translate(-210.26 -46.52)"/><path class="cls-3" d="M446.16,527H440V442.14h6.21Z" transform="translate(-210.26 -46.52)"/><path class="cls-3" d="M532.43,464.85a19.67,19.67,0,0,0-3.18-7.09,23.66,23.66,0,0,0-5.81-5.74,28.51,28.51,0,0,0-8-3.84,33,33,0,0,0-9.73-1.39,35.72,35.72,0,0,0-13.37,2.4,27.19,27.19,0,0,0-10.24,7.09A32.26,32.26,0,0,0,475.57,468a52.83,52.83,0,0,0-2.28,16.31,53.61,53.61,0,0,0,2.28,16.4,33.4,33.4,0,0,0,6.51,11.9,27.43,27.43,0,0,0,10.16,7.28,33.8,33.8,0,0,0,13.21,2.48q11,0,18.14-4.92t8.84-14.38h6.43a29.33,29.33,0,0,1-3.8,10.82,28,28,0,0,1-7.2,8,32,32,0,0,1-10,5,42.22,42.22,0,0,1-12.25,1.71,39.92,39.92,0,0,1-16.16-3.14,34.42,34.42,0,0,1-12.21-8.88,39.72,39.72,0,0,1-7.75-13.91,58,58,0,0,1-2.72-18.34,56.6,56.6,0,0,1,2.72-18.13,39.08,39.08,0,0,1,7.79-13.76,34,34,0,0,1,12.24-8.76,40.63,40.63,0,0,1,16.09-3.06,37.88,37.88,0,0,1,11.67,1.78,35,35,0,0,1,10,5,31,31,0,0,1,7.44,7.67,27.8,27.8,0,0,1,4.18,9.81Z" transform="translate(-210.26 -46.52)"/><path class="cls-3" d="M622.58,527H616.3V484.77H564V527h-6.2V442.14H564v36.43H616.3V442.14h6.28Z" transform="translate(-210.26 -46.52)"/><path class="cls-3" d="M711.88,527h-7.45l-10.38-27.28H652.27q-2.25,6.43-4.89,13.6t-5,13.68h-6.58q4.18-11,8.25-21.54t8.1-21q4-10.42,8.1-21t8.26-21.47h8.76Zm-19.62-32.16-19.68-47.21-18.69,47.21Z" transform="translate(-210.26 -46.52)"/><path class="cls-3" d="M786.52,527H725.21V442.14h59.22v6.2h-53v31.39H781.1v6.2H731.41v34.88h55.11Z" transform="translate(-210.26 -46.52)"/><path class="cls-3" d="M855.74,527h-50V442.14H812v78.67h43.79Z" transform="translate(-210.26 -46.52)"/><path class="cls-3" d="M942.33,442.14h30.85a69,69,0,0,1,11.93,1,28.78,28.78,0,0,1,10.12,3.69,19.88,19.88,0,0,1,7,7.24,23.36,23.36,0,0,1,2.59,11.63q0,12.48-7.86,19t-23,6.51H948.53V527h-6.2Zm6.2,42.86h25.66a42.7,42.7,0,0,0,11.08-1.24,19.59,19.59,0,0,0,7.48-3.64,13.84,13.84,0,0,0,4.22-5.93,23.28,23.28,0,0,0,1.32-8.18,18.59,18.59,0,0,0-2-9.15,14,14,0,0,0-5.35-5.38,21.85,21.85,0,0,0-7.79-2.52,66,66,0,0,0-9.3-.62H948.53Z" transform="translate(-210.26 -46.52)"/><path class="cls-3" d="M1031.55,527h-6.21V442.14h6.21Z" transform="translate(-210.26 -46.52)"/><path class="cls-3" d="M1117.59,527h-61.32V442.14h59.22v6.2h-53v31.39h49.69v6.2h-49.69v34.88h55.12Z" transform="translate(-210.26 -46.52)"/><path class="cls-3" d="M1204.64,527h-6.82l-8.45-22.55a56.5,56.5,0,0,0-2.76-6.13,22.57,22.57,0,0,0-3.52-5,15.65,15.65,0,0,0-4.61-3.37,14.11,14.11,0,0,0-6.09-1.24H1142.7V527h-6.2V442.14h38.22a53.89,53.89,0,0,1,10.34,1,25.49,25.49,0,0,1,8.92,3.44,17.9,17.9,0,0,1,6.24,6.87,23.75,23.75,0,0,1,2.32,11.2,29.2,29.2,0,0,1-1,7.94,20.57,20.57,0,0,1-3.18,6.59,19.21,19.21,0,0,1-5.43,5,23.54,23.54,0,0,1-7.71,3,30.59,30.59,0,0,1,4,3.57,21.18,21.18,0,0,1,2.68,3.64,29.58,29.58,0,0,1,2,4.27l2.06,5.35Zm-61.94-44.49h29.46a54,54,0,0,0,10.77-.93,18.76,18.76,0,0,0,7.4-3.06,12.7,12.7,0,0,0,4.31-5.54,22.21,22.21,0,0,0,1.39-8.37q0-8.76-5.54-12.52t-16.55-3.76H1142.7Z" transform="translate(-210.26 -46.52)"/><path class="cls-3" d="M1273.78,527h-50V442.14h6.2v78.67h43.8Z" transform="translate(-210.26 -46.52)"/><path class="cls-3" d="M1323,528.57a46.65,46.65,0,0,1-13-1.59,27.49,27.49,0,0,1-9-4.31,21.13,21.13,0,0,1-5.65-6.35,31.46,31.46,0,0,1-3.18-7.75,43.27,43.27,0,0,1-1.36-8.53c-.18-3-.27-5.81-.27-8.6v-49.3h6.2V491.2a58.92,58.92,0,0,0,1.74,15.78,21.75,21.75,0,0,0,5.12,9.49,17.28,17.28,0,0,0,8.22,4.65,44.89,44.89,0,0,0,11.12,1.24,46.18,46.18,0,0,0,11.28-1.24,16.73,16.73,0,0,0,8.22-4.69,22.25,22.25,0,0,0,5-9.49,59.9,59.9,0,0,0,1.7-15.74V442.14h6.2v49.3a75.36,75.36,0,0,1-1.47,15.65,28.82,28.82,0,0,1-5.12,11.67,22.84,22.84,0,0,1-9.92,7.29Q1332.62,528.56,1323,528.57Z" transform="translate(-210.26 -46.52)"/><path class="cls-3" d="M1386.41,527h-6.2V442.14h6.2Z" transform="translate(-210.26 -46.52)"/><path class="cls-3" d="M1442.22,528.57a55.23,55.23,0,0,1-15-1.83,31.53,31.53,0,0,1-10.81-5.19,22.81,22.81,0,0,1-6.71-8.14,28.47,28.47,0,0,1-2.71-10.74h6.12a23.73,23.73,0,0,0,3.49,9.54,19.91,19.91,0,0,0,6.32,6,26.4,26.4,0,0,0,8.56,3.17,53.93,53.93,0,0,0,10.24.93,39.85,39.85,0,0,0,10.19-1.2,23.6,23.6,0,0,0,7.75-3.49,15.69,15.69,0,0,0,4.92-5.5,15.19,15.19,0,0,0,1.71-7.25,15.79,15.79,0,0,0-1.47-7.17,13.12,13.12,0,0,0-5-5.07,38.25,38.25,0,0,0-9.18-3.88q-5.7-1.71-14.15-3.49a76.94,76.94,0,0,1-12-3.56,31.66,31.66,0,0,1-8.26-4.69,16.88,16.88,0,0,1-4.8-6.13,19.29,19.29,0,0,1-1.55-8,19.62,19.62,0,0,1,2.09-9.07,20.5,20.5,0,0,1,5.93-7,28.54,28.54,0,0,1,9.22-4.58,41.21,41.21,0,0,1,11.9-1.62A44.35,44.35,0,0,1,1451,442.1a30.68,30.68,0,0,1,9.49,4.38,23.38,23.38,0,0,1,6.59,7,23.66,23.66,0,0,1,3.22,9.3h-6a20.6,20.6,0,0,0-2.79-6.35,18.71,18.71,0,0,0-5-5.08,24.23,24.23,0,0,0-7.29-3.33,35.33,35.33,0,0,0-9.65-1.2q-11.38,0-17.24,4.18a13.35,13.35,0,0,0-5.86,11.48,14.27,14.27,0,0,0,1.09,5.81,11.43,11.43,0,0,0,3.68,4.46,25.3,25.3,0,0,0,6.86,3.48,80.65,80.65,0,0,0,10.62,2.83q3.72.78,7.67,1.63t7.72,2a47.84,47.84,0,0,1,7.17,2.86,23.35,23.35,0,0,1,5.93,4.19,18.8,18.8,0,0,1,4,5.93,20.25,20.25,0,0,1,1.51,8.18,21.72,21.72,0,0,1-2.29,10,23.78,23.78,0,0,1-6.35,7.83,30,30,0,0,1-9.69,5.11A39.26,39.26,0,0,1,1442.22,528.57Z" transform="translate(-210.26 -46.52)"/><path class="cls-3" d="M1522.6,528.57a55.29,55.29,0,0,1-15-1.83,31.53,31.53,0,0,1-10.81-5.19,22.91,22.91,0,0,1-6.71-8.14,28.66,28.66,0,0,1-2.71-10.74h6.13a23.73,23.73,0,0,0,3.48,9.54,19.91,19.91,0,0,0,6.32,6,26.46,26.46,0,0,0,8.57,3.17,53.74,53.74,0,0,0,10.23.93,39.85,39.85,0,0,0,10.19-1.2,23.6,23.6,0,0,0,7.75-3.49,15.72,15.72,0,0,0,4.93-5.5,15.3,15.3,0,0,0,1.7-7.25,15.79,15.79,0,0,0-1.47-7.17,13.09,13.09,0,0,0-5-5.07,38.52,38.52,0,0,0-9.19-3.88q-5.7-1.71-14.14-3.49a76.76,76.76,0,0,1-12-3.56,31.82,31.82,0,0,1-8.26-4.69,16.88,16.88,0,0,1-4.8-6.13,19.29,19.29,0,0,1-1.55-8,19.75,19.75,0,0,1,2.09-9.07,20.61,20.61,0,0,1,5.93-7,28.54,28.54,0,0,1,9.22-4.58,41.26,41.26,0,0,1,11.9-1.62,44.35,44.35,0,0,1,11.94,1.51,30.74,30.74,0,0,1,9.5,4.38,23.12,23.12,0,0,1,9.8,16.27h-6a20.6,20.6,0,0,0-2.79-6.35,18.71,18.71,0,0,0-5-5.08,24.29,24.29,0,0,0-7.28-3.33,35.43,35.43,0,0,0-9.65-1.2q-11.4,0-17.25,4.18a13.36,13.36,0,0,0-5.85,11.48,14.45,14.45,0,0,0,1.08,5.81,11.43,11.43,0,0,0,3.68,4.46,25.3,25.3,0,0,0,6.86,3.48,81.08,81.08,0,0,0,10.62,2.83l7.68,1.63q3.95.85,7.71,2a47,47,0,0,1,7.17,2.86,23.35,23.35,0,0,1,5.93,4.19,18.8,18.8,0,0,1,4,5.93,20.25,20.25,0,0,1,1.51,8.18,21.84,21.84,0,0,1-2.28,10,23.94,23.94,0,0,1-6.36,7.83,29.81,29.81,0,0,1-9.69,5.11A39.26,39.26,0,0,1,1522.6,528.57Z" transform="translate(-210.26 -46.52)"/><path class="cls-3" d="M1580.66,527h-6.2V442.14h6.2Z" transform="translate(-210.26 -46.52)"/><path class="cls-1" d="M369.88,587H337.33v21.28h28.31v4.14H337.33V639.5h-4.14V582.82h36.69Z" transform="translate(-210.26 -46.52)"/><path class="cls-1" d="M406.22,581.79a27.34,27.34,0,0,1,10.71,2.07,24.14,24.14,0,0,1,8.46,5.9,27.23,27.23,0,0,1,5.54,9.21,34.35,34.35,0,0,1,2,12,35.1,35.1,0,0,1-2,12,27.8,27.8,0,0,1-5.51,9.34,24.63,24.63,0,0,1-8.44,6.06,28.35,28.35,0,0,1-21.61,0,24.74,24.74,0,0,1-8.46-6,27.63,27.63,0,0,1-5.52-9.32,35.23,35.23,0,0,1-2-12.06,34.51,34.51,0,0,1,2-12.06,26.93,26.93,0,0,1,5.56-9.19,24.84,24.84,0,0,1,8.47-5.87A27.27,27.27,0,0,1,406.22,581.79Zm-.05,54.6a23.57,23.57,0,0,0,9-1.68,19.69,19.69,0,0,0,7.11-4.94,22.7,22.7,0,0,0,4.66-8A32.69,32.69,0,0,0,428.58,611a31.46,31.46,0,0,0-1.69-10.77,22.64,22.64,0,0,0-4.65-7.84,19.52,19.52,0,0,0-7-4.81,23.58,23.58,0,0,0-8.88-1.63,23.83,23.83,0,0,0-9,1.66,19.83,19.83,0,0,0-7.12,4.83,22.35,22.35,0,0,0-4.68,7.85A31.44,31.44,0,0,0,383.81,611a32.7,32.7,0,0,0,1.65,10.79,23.1,23.1,0,0,0,4.63,8,19.49,19.49,0,0,0,7.1,4.94A23.5,23.5,0,0,0,406.17,636.39Z" transform="translate(-210.26 -46.52)"/><path class="cls-1" d="M478.42,639.5H445V582.82h4.14v52.54h29.24Z" transform="translate(-210.26 -46.52)"/><path class="cls-1" d="M530.64,639.5H489.7V582.82h39.55V587H493.84v21H527v4.14H493.84v23.29h36.8Z" transform="translate(-210.26 -46.52)"/><path class="cls-1" d="M587.06,582.82l-22.15,32.35V639.5h-4.14V615.17l-22.36-32.35h4.86l19.57,28,19.41-28Z" transform="translate(-210.26 -46.52)"/><path class="cls-1" d="M688.4,639.5h-5l-6.93-18.22H648.6q-1.5,4.29-3.26,9.08T642,639.5h-4.4q2.8-7.35,5.52-14.39t5.41-14l5.4-14q2.73-7,5.52-14.34h5.84ZM675.31,618,662.16,586.5,649.69,618Z" transform="translate(-210.26 -46.52)"/><path class="cls-1" d="M742.69,639.5h-4.55l-5.64-15.06a37.44,37.44,0,0,0-1.84-4.09,15.09,15.09,0,0,0-2.35-3.34,10.4,10.4,0,0,0-3.08-2.25,9.39,9.39,0,0,0-4.07-.83H701.34V639.5H697.2V582.82h25.52a36.39,36.39,0,0,1,6.91.65,17.21,17.21,0,0,1,6,2.3,12,12,0,0,1,4.16,4.58,15.84,15.84,0,0,1,1.56,7.48,19.59,19.59,0,0,1-.7,5.31,13.92,13.92,0,0,1-2.12,4.4,12.86,12.86,0,0,1-3.63,3.31,15.51,15.51,0,0,1-5.15,2,21.52,21.52,0,0,1,2.64,2.38,14,14,0,0,1,1.79,2.44,19.13,19.13,0,0,1,1.34,2.84l1.38,3.58Zm-41.35-29.71H721a36.31,36.31,0,0,0,7.19-.62,12.73,12.73,0,0,0,4.95-2,8.43,8.43,0,0,0,2.87-3.7,14.78,14.78,0,0,0,.93-5.59q0-5.83-3.7-8.35t-11-2.52H701.34Z" transform="translate(-210.26 -46.52)"/><path class="cls-1" d="M794.3,587H774.47V639.5h-4.14V587H750.72v-4.14H794.3Z" transform="translate(-210.26 -46.52)"/><path class="cls-1" d="M897.71,635.82l-2.85,2.9-8.18-8.07a25.8,25.8,0,0,1-4.19,4.79,20.82,20.82,0,0,1-4.47,3,18.57,18.57,0,0,1-4.74,1.61,26.11,26.11,0,0,1-4.92.46,18.35,18.35,0,0,1-6.78-1.24,16.88,16.88,0,0,1-5.48-3.44,16.17,16.17,0,0,1-3.68-5.2,15.59,15.59,0,0,1-1.34-6.47q0-10.14,11.64-17.13a48.49,48.49,0,0,1-5.85-7.43,11.23,11.23,0,0,1-2-5.56,12.75,12.75,0,0,1,1-5.08,10.4,10.4,0,0,1,2.62-3.7,11.31,11.31,0,0,1,4-2.25,15.27,15.27,0,0,1,4.94-.78,13.82,13.82,0,0,1,5,.91,12.69,12.69,0,0,1,4.06,2.49,11.26,11.26,0,0,1,3.7,8.41,8.55,8.55,0,0,1-.83,3.62,14.65,14.65,0,0,1-2.32,3.54,23.69,23.69,0,0,1-3.6,3.32,31.52,31.52,0,0,1-4.63,2.87l16.92,16.72a27.35,27.35,0,0,0,1.19-3c.38-1.11.73-2.31,1-3.6a40.78,40.78,0,0,0,.75-4,36.93,36.93,0,0,0,.33-4.22h3.89a36.33,36.33,0,0,1-4.25,17.34ZM865.1,609.27a29.19,29.19,0,0,0-3.83,3.08,24.08,24.08,0,0,0-3.16,3.68,19,19,0,0,0-2.12,4,10.8,10.8,0,0,0-.77,3.93,12.32,12.32,0,0,0,1,5.07,12,12,0,0,0,2.87,4,13.38,13.38,0,0,0,4.4,2.64,16.06,16.06,0,0,0,5.67,1q8,0,14.29-9.06Zm10.72-15.21a7.45,7.45,0,0,0-2.41-6,9.17,9.17,0,0,0-6.19-2.07,8.78,8.78,0,0,0-3.59.68,7.2,7.2,0,0,0-2.54,1.81,7.61,7.61,0,0,0-1.5,2.56,9,9,0,0,0-.49,3,6.27,6.27,0,0,0,.65,2.69,15.46,15.46,0,0,0,1.7,2.79c.71.93,1.49,1.86,2.33,2.77s1.68,1.8,2.51,2.67q2-1.25,3.75-2.41a20.68,20.68,0,0,0,3-2.43,11.19,11.19,0,0,0,2-2.75A7.22,7.22,0,0,0,875.82,594.06Z" transform="translate(-210.26 -46.52)"/><path class="cls-1" d="M977,640.53a37.06,37.06,0,0,1-10-1.21,21.1,21.1,0,0,1-7.22-3.47,15.27,15.27,0,0,1-4.48-5.43,19.13,19.13,0,0,1-1.81-7.17h4.09a15.71,15.71,0,0,0,2.33,6.36,13.21,13.21,0,0,0,4.22,4,17.43,17.43,0,0,0,5.72,2.12,35.4,35.4,0,0,0,6.83.62,26.27,26.27,0,0,0,6.8-.8,15.71,15.71,0,0,0,5.18-2.33,10.53,10.53,0,0,0,3.29-3.67,10.17,10.17,0,0,0,1.14-4.84,10.45,10.45,0,0,0-1-4.79,8.75,8.75,0,0,0-3.31-3.39,25.57,25.57,0,0,0-6.13-2.59c-2.54-.76-5.69-1.53-9.45-2.33a51.18,51.18,0,0,1-8-2.38,20.92,20.92,0,0,1-5.51-3.13,11.21,11.21,0,0,1-3.21-4.09,12.93,12.93,0,0,1-1-5.35,13.18,13.18,0,0,1,1.39-6.06,13.94,13.94,0,0,1,4-4.71,19.09,19.09,0,0,1,6.16-3,27.24,27.24,0,0,1,8-1.09,29.77,29.77,0,0,1,8,1,20.53,20.53,0,0,1,6.34,2.92,15.44,15.44,0,0,1,6.55,10.87h-4a13.74,13.74,0,0,0-1.86-4.24A12.51,12.51,0,0,0,986.5,589a16.31,16.31,0,0,0-4.87-2.23,23.73,23.73,0,0,0-6.44-.8q-7.61,0-11.52,2.79a8.93,8.93,0,0,0-3.9,7.66,9.71,9.71,0,0,0,.72,3.89,7.57,7.57,0,0,0,2.46,3,16.82,16.82,0,0,0,4.58,2.33,53,53,0,0,0,7.09,1.89l5.13,1.09q2.63.57,5.15,1.34a31.8,31.8,0,0,1,4.78,1.92,15.48,15.48,0,0,1,4,2.79,12.67,12.67,0,0,1,2.69,4,13.44,13.44,0,0,1,1,5.46,14.61,14.61,0,0,1-1.52,6.65,15.85,15.85,0,0,1-4.25,5.23,19.86,19.86,0,0,1-6.47,3.42A26.32,26.32,0,0,1,977,640.53Z" transform="translate(-210.26 -46.52)"/><path class="cls-1" d="M1033.78,581.79a27.3,27.3,0,0,1,10.71,2.07,24.27,24.27,0,0,1,8.47,5.9,27.39,27.39,0,0,1,5.54,9.21,34.58,34.58,0,0,1,2,12,35.1,35.1,0,0,1-2,12,27.8,27.8,0,0,1-5.51,9.34,24.63,24.63,0,0,1-8.44,6.06,28.35,28.35,0,0,1-21.61,0,24.74,24.74,0,0,1-8.46-6A27.61,27.61,0,0,1,1009,623a35.23,35.23,0,0,1-2-12.06,34.75,34.75,0,0,1,2-12.06,27,27,0,0,1,5.57-9.19,24.7,24.7,0,0,1,8.46-5.87A27.27,27.27,0,0,1,1033.78,581.79Zm0,54.6a23.53,23.53,0,0,0,9-1.68,19.81,19.81,0,0,0,7.12-4.94,22.68,22.68,0,0,0,4.65-8,32.43,32.43,0,0,0,1.66-10.79,31.72,31.72,0,0,0-1.68-10.77,22.66,22.66,0,0,0-4.66-7.84,19.43,19.43,0,0,0-7-4.81,23.58,23.58,0,0,0-8.88-1.63,23.9,23.9,0,0,0-9,1.66,19.79,19.79,0,0,0-7.11,4.83,22.22,22.22,0,0,0-4.69,7.85,31.44,31.44,0,0,0-1.68,10.71,32.43,32.43,0,0,0,1.66,10.79,22.79,22.79,0,0,0,4.63,8,19.45,19.45,0,0,0,7.09,4.94A23.53,23.53,0,0,0,1033.73,636.39Z" transform="translate(-210.26 -46.52)"/><path class="cls-1" d="M1094.08,640.53a30.85,30.85,0,0,1-8.67-1.06,18.19,18.19,0,0,1-6-2.87,14.19,14.19,0,0,1-3.78-4.24,21.15,21.15,0,0,1-2.12-5.18,29.5,29.5,0,0,1-.9-5.69c-.13-2-.19-3.88-.19-5.75V582.82h4.14v32.77a39,39,0,0,0,1.17,10.53,14.48,14.48,0,0,0,3.42,6.34,11.62,11.62,0,0,0,5.48,3.11,30.21,30.21,0,0,0,7.43.82,31.06,31.06,0,0,0,7.53-.82,11.26,11.26,0,0,0,5.49-3.14,14.83,14.83,0,0,0,3.33-6.34,39.67,39.67,0,0,0,1.14-10.5V582.82h4.14v32.92a50.76,50.76,0,0,1-1,10.46,19.26,19.26,0,0,1-3.42,7.79,15.27,15.27,0,0,1-6.62,4.86A28.78,28.78,0,0,1,1094.08,640.53Z" transform="translate(-210.26 -46.52)"/><path class="cls-1" d="M1174.2,639.5h-5.44l-34.57-51.76V639.5h-4.14V582.82h5.69l34.32,51.66V582.82h4.14Z" transform="translate(-210.26 -46.52)"/><path class="cls-1" d="M1234.29,610.72q0,28.78-28.62,28.78h-17.13V582.88h17.13q14.34,0,21.48,6.91T1234.29,610.72Zm-4.4,0a41,41,0,0,0-1.11-10,17.27,17.27,0,0,0-3.91-7.48,17.56,17.56,0,0,0-7.48-4.68,37,37,0,0,0-11.83-1.61h-12.88v48.4h12.88a35.59,35.59,0,0,0,11.78-1.66,17.34,17.34,0,0,0,7.48-4.84,18.24,18.24,0,0,0,3.93-7.73A43.08,43.08,0,0,0,1229.89,610.72Z" transform="translate(-210.26 -46.52)"/><path class="cls-1" d="M1338.94,610.72q0,28.78-28.62,28.78h-17.13V582.88h17.13q14.34,0,21.48,6.91T1338.94,610.72Zm-4.4,0a41,41,0,0,0-1.11-10,17.16,17.16,0,0,0-3.91-7.48,17.52,17.52,0,0,0-7.47-4.68,37,37,0,0,0-11.83-1.61h-12.89v48.4h12.89A35.53,35.53,0,0,0,1322,633.7a17.28,17.28,0,0,0,7.48-4.84,18.15,18.15,0,0,0,3.94-7.73A43.11,43.11,0,0,0,1334.54,610.72Z" transform="translate(-210.26 -46.52)"/><path class="cls-1" d="M1392.31,639.5h-40.94V582.82h39.54V587h-35.4v21h33.17v4.14h-33.17v23.29h36.8Z" transform="translate(-210.26 -46.52)"/><path class="cls-1" d="M1425.79,640.53a37.12,37.12,0,0,1-10-1.21,21.19,21.19,0,0,1-7.22-3.47,15.14,15.14,0,0,1-4.47-5.43,19.13,19.13,0,0,1-1.82-7.17h4.09a15.86,15.86,0,0,0,2.33,6.36,13.31,13.31,0,0,0,4.22,4,17.43,17.43,0,0,0,5.72,2.12,35.48,35.48,0,0,0,6.83.62,26.41,26.41,0,0,0,6.81-.8,15.65,15.65,0,0,0,5.17-2.33,10.53,10.53,0,0,0,3.29-3.67,10.17,10.17,0,0,0,1.14-4.84,10.59,10.59,0,0,0-1-4.79,8.79,8.79,0,0,0-3.32-3.39,25.39,25.39,0,0,0-6.13-2.59c-2.54-.76-5.69-1.53-9.45-2.33a51,51,0,0,1-8-2.38,20.6,20.6,0,0,1-5.51-3.13,11.21,11.21,0,0,1-3.21-4.09,12.93,12.93,0,0,1-1-5.35,13.18,13.18,0,0,1,1.4-6.06,13.72,13.72,0,0,1,4-4.71,19,19,0,0,1,6.16-3,27.17,27.17,0,0,1,7.94-1.09,29.72,29.72,0,0,1,8,1,20.43,20.43,0,0,1,6.34,2.92,15.44,15.44,0,0,1,6.55,10.87h-4a13.5,13.5,0,0,0-1.86-4.24,12.37,12.37,0,0,0-3.34-3.39,16.25,16.25,0,0,0-4.86-2.23,23.81,23.81,0,0,0-6.45-.8q-7.6,0-11.51,2.79a8.92,8.92,0,0,0-3.91,7.66,9.71,9.71,0,0,0,.72,3.89,7.75,7.75,0,0,0,2.46,3,17,17,0,0,0,4.58,2.33,53,53,0,0,0,7.09,1.89l5.13,1.09c1.76.38,3.47.83,5.15,1.34a31.92,31.92,0,0,1,4.79,1.92,15.83,15.83,0,0,1,4,2.79,12.84,12.84,0,0,1,2.69,4,13.61,13.61,0,0,1,1,5.46,14.49,14.49,0,0,1-1.53,6.65,15.82,15.82,0,0,1-4.24,5.23,20,20,0,0,1-6.47,3.42A26.39,26.39,0,0,1,1425.79,640.53Z" transform="translate(-210.26 -46.52)"/><path class="cls-1" d="M1464.56,639.5h-4.14V582.82h4.14Z" transform="translate(-210.26 -46.52)"/><path class="cls-1" d="M1505.29,640.53a27.91,27.91,0,0,1-11-2.12,24.59,24.59,0,0,1-8.56-6,26.57,26.57,0,0,1-5.51-9.31,35.91,35.91,0,0,1-1.94-12.14,35.16,35.16,0,0,1,2-12.11,26.69,26.69,0,0,1,5.52-9.19,24.15,24.15,0,0,1,8.46-5.85,28.07,28.07,0,0,1,10.87-2,31.47,31.47,0,0,1,8.69,1.16,25,25,0,0,1,7.2,3.32,19.83,19.83,0,0,1,5.22,5.15,18.3,18.3,0,0,1,2.85,6.67h-4.45a11.21,11.21,0,0,0-2-4.68,15.44,15.44,0,0,0-4.12-3.86,22.32,22.32,0,0,0-5.9-2.64,26.5,26.5,0,0,0-7.4-1,25,25,0,0,0-9.11,1.6,19.11,19.11,0,0,0-7.12,4.79,22.17,22.17,0,0,0-4.63,7.87,36.11,36.11,0,0,0,0,21.58,23,23,0,0,0,4.63,8,19.42,19.42,0,0,0,7.15,4.94,24.31,24.31,0,0,0,9.18,1.68,26.07,26.07,0,0,0,12.22-2.69,25.66,25.66,0,0,0,8.75-7.45v-10.2h-15.64v-4.14h19.78V639.5H1528l-1.81-7.56a21,21,0,0,1-4.34,4,23.6,23.6,0,0,1-5,2.64,27.93,27.93,0,0,1-5.56,1.48A37.3,37.3,0,0,1,1505.29,640.53Z" transform="translate(-210.26 -46.52)"/><path class="cls-1" d="M1587.33,639.5h-5.43l-34.58-51.76V639.5h-4.14V582.82h5.7l34.31,51.66V582.82h4.14Z" transform="translate(-210.26 -46.52)"/></svg>