<?xml version="1.0" encoding="utf-8"?>
<!-- Generator: Adobe Illustrator 26.0.3, SVG Export Plug-In . SVG Version: 6.00 Build 0)  -->
<svg version="1.1" id="Logo" xmlns="http://www.w3.org/2000/svg" xmlns:xlink="http://www.w3.org/1999/xlink" x="0px" y="0px"
	 viewBox="0 0 1466 981.3" style="enable-background:new 0 0 1466 981.3;" xml:space="preserve">
<style type="text/css">
	.st0{fill:#FFFFFF;}
</style>
<g id="Lines">
	<g id="Bottom">
		<rect x="32.6" y="633.5" class="st0" width="1401" height="5"/>
		<path class="st0" d="M1434.1,638.9H32.1v-6h1402V638.9z M33.1,637.9h1400v-4H33.1L33.1,637.9z"/>
	</g>
	<g id="Top">
		<line class="st0" x1="32.7" y1="339.8" x2="1433.5" y2="339.8"/>
		<rect x="32.7" y="337.3" class="st0" width="1400.7" height="5"/>
	</g>
</g>
<g id="Circles">
	<path class="st0" d="M1423,298.5C1318.4,50.5,1032.5-65.6,784.6,39.1c-17.6,7.4-34.8,15.9-51.5,25.4C499.1-68.7,201.5,13,68.3,247
		S16.9,778.6,250.8,911.8c149.5,85.1,332.8,85.1,482.3,0c234.1,133,531.7,51,664.6-183.1C1472.5,596.9,1481.9,438,1423,298.5
		L1423,298.5z M974.1,964.7c-80.5,0.1-159.7-20.3-230.1-59.3c88-53.3,156.9-132.9,197.1-227.6c6.1-14.4,11.4-29,16.1-43.7h-11.4
		c-36.1,111.4-111.8,205.7-212.7,265.1c-99.9-58.8-176.6-153-212.7-265.1h-11.3c4.6,14.8,10,29.4,16.1,43.7
		c40.2,94.7,109.1,174.3,197.1,227.6c-70.4,39-149.6,59.4-230,59.3c-262.8,0-476.5-213.7-476.5-476.5S229.4,11.6,492.2,11.6
		c80.5-0.1,159.6,20.3,230,59.3c-88,53.3-156.9,132.9-197.1,227.6c-6.1,14.4-11.4,29-16.1,43.7h11.4
		C556.6,230,633.2,135.9,733.1,77.1c100.9,59.4,176.6,153.7,212.7,265.1h11.4c-4.6-14.8-10-29.4-16.1-43.7
		C901,203.8,832,124.2,744,70.9c70.4-39,149.6-59.4,230.1-59.3c262.8,0,476.5,213.7,476.5,476.5S1236.9,964.7,974.1,964.7z"/>
	<path class="st0" d="M974.1,975.9c-65.2,0.1-129.8-12.9-189.9-38.3c-17.5-7.4-34.6-15.8-51.1-25.2c-16.5,9.4-33.6,17.8-51,25.2
		C433.9,1042.4,147.6,926.2,42.8,678S54.1,143.6,302.3,38.7c0,0,0,0,0,0c121.4-51.1,258.3-51.1,379.8,0
		c17.5,7.4,34.6,15.8,51.1,25.2c234.2-133.3,532.1-51.4,665.3,182.8s51.4,532.1-182.8,665.3C1142.1,953.9,1058.8,975.9,974.1,975.9
		L974.1,975.9z M733.1,911.2l0.2,0.1c233.7,133,531,51.4,664-182.4c133-233.7,51.4-531-182.4-664c-149.3-85-332.4-85-481.7,0
		l-0.2,0.1l-0.2-0.1c-233.7-133-531-51.4-664,182.4s-51.4,531,182.4,664c149.3,85,332.4,85,481.7,0L733.1,911.2z M974.1,965.2
		c-80.5,0-159.8-20.4-230.3-59.4l-0.7-0.4l0.7-0.4c87.9-53.2,156.8-132.8,196.9-227.4c6-14,11.3-28.5,15.9-43.1h-10.3
		c-36.2,111.4-111.9,205.7-212.8,265l-0.2,0.1l-0.3-0.1c-101-59.4-176.7-153.6-212.9-265h-10.3c4.6,14.6,9.9,29,15.9,43.1
		c40.1,94.6,109,174.1,196.9,227.3l0.7,0.4l-0.8,0.4c-70.5,38.9-149.7,59.3-230.3,59.4c-263,0-477-214-477-477s214-477,477-477
		c80.5,0,159.8,20.4,230.3,59.4l0.8,0.4l-0.7,0.4c-87.9,53.2-156.8,132.8-196.9,227.3c-6,14-11.3,28.5-15.9,43.1H520
		c36.2-111.4,111.9-205.7,212.8-265l0.3-0.1l0.2,0.1c100.9,59.4,176.7,153.7,212.8,265h10.3c-4.6-14.5-9.9-29-15.9-43.1
		c-40.1-94.6-109-174.1-196.9-227.3l-0.7-0.4l0.7-0.4c70.5-38.9,149.7-59.3,230.3-59.4c263,0,477,214,477,477
		S1237.1,965.2,974.1,965.2L974.1,965.2z M745,905.3c70.2,38.6,149,58.8,229.1,58.8c262.5,0,476-213.6,476-476
		s-213.6-476.1-476-476.1C894,12.1,815.2,32.3,745,70.9c87.7,53.3,156.5,132.9,196.6,227.4c6,14.3,11.4,29,16.1,43.8l0.2,0.6h-12.4
		l-0.1-0.3C909.5,231.1,833.9,136.9,733.1,77.7c-100.8,59.2-176.3,153.4-212.3,264.7l-0.1,0.3h-12.4l0.2-0.6
		c4.6-14.8,10.1-29.5,16.1-43.8c40.1-94.5,108.9-174,196.6-227.4c-70.2-38.6-149-58.8-229-58.8c-262.5,0-476.1,213.6-476.1,476.1
		s213.5,476,476.1,476c80.1,0,158.9-20.2,229-58.8C633.5,852,564.8,772.5,524.7,678c-6-14.3-11.5-29-16.1-43.7l-0.2-0.6h12.4
		l0.1,0.3c35.9,111.2,111.5,205.4,212.3,264.6c100.8-59.2,176.3-153.4,212.3-264.7l0.1-0.3h12.4l-0.2,0.6
		c-4.6,14.8-10.1,29.5-16.1,43.7C901.5,772.4,832.7,852,745,905.3z"/>
</g>
<g id="Text">
	<g id="Text-2">
		<g id="MP">
			<path class="st0" d="M143.6,532.1v-83.2h-0.3l-36.2,83.2H95l-35.7-82.5H59v82.5H45.9v-98h20.7l34.5,79.7h0.3l34.8-79.7h21.1v98
				L143.6,532.1z"/>
			<path class="st0" d="M157.9,532.7H143V451l-35.5,81.7H94.5l-35-80.9v80.9H45.3v-99.2H67l0.1,0.4l34.1,78.8l34.6-79.1h22.1
				L157.9,532.7z M144.2,531.5h12.5v-96.8h-20.2l-34.8,79.7h-1l-0.2-0.3l-34.4-79.3H46.5v96.8h11.9V449h1.3l35.7,82.5h11.4
				l36.2-83.2h1.2V531.5z"/>
			<path class="st0" d="M179.6,434.1h13.7v98h-13.7V434.1z"/>
			<path class="st0" d="M193.9,532.7H179v-99.2h14.9L193.9,532.7z M180.2,531.5h12.5v-96.8h-12.5V531.5z"/>
			<path class="st0" d="M290.3,442.1v15.6h-0.7c-6.8-8.1-17.1-12.5-29.4-12.5c-22,0-36.8,15.5-36.8,37.9c0,22.4,14.8,37.9,36.8,37.9
				c12.1,0,22.4-4.3,29.4-12.5h0.7v15.6c-7.6,6.2-17.7,9.4-30.7,9.4c-29.8,0-50.1-21-50.1-50.5c0-29.5,20.3-50.5,50.1-50.5
				C273,432.6,282.7,435.7,290.3,442.1z"/>
			<path class="st0" d="M259.6,534.1c-29.8,0-50.7-21-50.7-51c0-30.1,20.8-51.1,50.7-51.1c13.4,0,23.3,3,31,9.6l0.2,0.2v16.5h-1.6
				l-0.2-0.2c-6.8-8.1-16.8-12.3-28.9-12.3c-21.7,0-36.2,15-36.2,37.3c0,22.3,14.6,37.3,36.2,37.3c12.1,0,22.1-4.3,28.9-12.3
				l0.2-0.2h1.6v16.5l-0.2,0.2C282.9,530.9,272.5,534.1,259.6,534.1z M259.6,433.2c-29.1,0-49.5,20.5-49.5,49.9
				c0,29.4,20.4,49.9,49.5,49.9c12.5,0,22.6-3.1,30.1-9.1v-14.6c-7,8.1-17.2,12.4-29.5,12.4c-22.4,0-37.4-15.5-37.4-38.5
				s15-38.5,37.4-38.5c12.3,0,22.5,4.3,29.5,12.4v-14.6C282.2,436.1,272.6,433.2,259.6,433.2z"/>
			<path class="st0" d="M377.5,532.1v-43.4h-55.2v43.4h-13.7v-98h13.7v42.1h55.2v-42.1h13.7v98H377.5z"/>
			<path class="st0" d="M391.8,532.7h-14.9v-43.4h-54v43.4h-14.9v-99.2h14.9v42.1h54v-42.1h14.9V532.7z M378.1,531.5h12.5v-96.8
				h-12.5v42.1h-56.4v-42.1h-12.5v96.8h12.5v-43.4h56.4L378.1,531.5z"/>
			<path class="st0" d="M480.3,511.7h-52.4l-8.7,20.4h-14.3l42.8-98h13l42.9,98h-14.7L480.3,511.7z M454,450.2l-20.9,49h41.8
				l-20.7-49H454z"/>
			<path class="st0" d="M504.5,532.7h-16l-8.7-20.4h-51.6l-8.7,20.4H404l43.3-99.2h13.7L504.5,532.7z M489.3,531.5h13.4l-42.4-96.8
				h-12.2l-42.3,96.8h13l8.7-20.4h53.1L489.3,531.5z M475.8,499.8h-43.6l21.3-50.2h1.1L475.8,499.8z M434.1,498.6h40l-20-47.3
				L434.1,498.6z"/>
			<path class="st0" d="M576.4,476.3v12.5H531v30.7h55.7v12.5h-69.4v-98h69.3v12.5H531v29.7H576.4z"/>
			<path class="st0" d="M587.2,532.7h-70.5v-99.2h70.5v13.7h-55.7v28.5h45.4v13.7h-45.3V519h55.7L587.2,532.7z M517.9,531.5h68.2
				v-11.4h-55.7v-31.9h45.4v-11.4h-45.3v-30.8h55.7v-11.4h-68.2V531.5z"/>
			<path class="st0" d="M604.8,532.1v-98h13.7v85.4h53.7v12.5L604.8,532.1z"/>
			<path class="st0" d="M672.7,532.7h-68.5v-99.2h14.9V519h53.7L672.7,532.7z M605.4,531.5h66.2v-11.4h-53.7v-85.4h-12.5V531.5z"/>
			<path class="st0" d="M759.3,434.1c22.3,0,33.8,10.5,33.8,30.8c0,20.3-11.6,31-33.8,31h-27.2V532h-13.7v-98H759.3z M758.7,483.4
				c13.7,0,20.5-6.2,20.5-18.4s-6.8-18.3-20.5-18.3h-26.7v36.8L758.7,483.4z"/>
			<path class="st0" d="M732.6,532.7h-14.9v-99.2h41.5c22.5,0,34.4,10.9,34.4,31.4s-11.9,31.6-34.4,31.6h-26.6V532.7z M718.9,531.5
				h12.5v-36.2h27.8c22,0,33.2-10.2,33.2-30.4s-11.2-30.3-33.2-30.3h-40.4V531.5z M758.7,484h-27.2V446h27.3
				c14,0,21.1,6.4,21.1,18.9C779.9,477.5,772.8,484,758.7,484L758.7,484z M732.6,482.8h26.1c13.4,0,20-5.8,20-17.9
				s-6.5-17.7-20-17.7h-26.1L732.6,482.8z"/>
			<path class="st0" d="M808.5,434.1h13.7v98h-13.7L808.5,434.1z"/>
			<path class="st0" d="M822.8,532.7H808v-99.2h14.9V532.7z M809.1,531.5h12.5v-96.8h-12.5V531.5z"/>
			<path class="st0" d="M903.6,476.3v12.5h-45.4v30.7h55.7v12.5h-69.3v-98h69.3v12.5h-55.7v29.7H903.6z"/>
			<path class="st0" d="M914.4,532.7h-70.5v-99.2h70.5v13.7h-55.7v28.5h45.4v13.7h-45.4V519h55.7V532.7z M845.1,531.5h68.2v-11.4
				h-55.7v-31.9H903v-11.4h-45.4v-30.8h55.7v-11.4h-68.2V531.5z"/>
			<path class="st0" d="M931.9,532.1v-98h41.7c22.3,0,33.8,10.3,33.8,30.3c0,16.1-7.4,26-22,29.2l24.9,38.5H994l-22.9-37.3h-25.5
				v37.3H931.9z M973,482.2c13.7,0,20.5-5.9,20.5-17.9c0-11.8-6.8-17.7-20.5-17.7h-27.4v35.6L973,482.2z"/>
			<path class="st0" d="M1011.4,532.7h-17.7l-22.9-37.3h-24.6v37.3h-14.9v-99.2h42.2c22.5,0,34.4,10.7,34.4,30.8
				c0,16.1-7.3,26.1-21.6,29.6L1011.4,532.7z M994.3,531.5h14.9l-24.7-38.3l0.8-0.2c14.3-3.2,21.5-12.8,21.5-28.7
				c0-19.7-11.2-29.7-33.2-29.7h-41.1v96.8h12.5v-37.3h26.5L994.3,531.5z M973,482.8h-28V446h28c14,0,21.1,6.2,21.1,18.3
				C994.2,476.5,987.1,482.8,973,482.8L973,482.8z M946.2,481.6H973c13.4,0,20-5.6,20-17.3c0-11.6-6.5-17.1-20-17.1h-26.8V481.6z"/>
			<path class="st0" d="M1026.1,532.1v-98h13.7v85.4h53.7v12.5L1026.1,532.1z"/>
			<path class="st0" d="M1094.1,532.7h-68.5v-99.2h14.9V519h53.7L1094.1,532.7z M1026.7,531.5h66.2v-11.4h-53.7v-85.4h-12.5
				L1026.7,531.5z"/>
			<path class="st0" d="M1186.1,490.8c0,28-14,42.7-40.7,42.7s-40.5-14.8-40.5-42.7v-56.7h13.7v55.8c0,20.2,9.4,31.1,27.1,31.1
				c17.7,0,27.3-10.9,27.3-31.1v-55.8h13.1V490.8z"/>
			<path class="st0" d="M1145.4,534.1c-26.8,0-41.1-15-41.1-43.4v-57.3h14.9v56.4c0,20,9.2,30.5,26.5,30.5s26.7-10.6,26.7-30.5
				v-56.4h14.3v57.3C1186.7,519.1,1172.4,534.1,1145.4,534.1z M1105.5,434.7v56.1c0,27.6,13.8,42.2,39.9,42.2
				c26.1,0,40.1-14.6,40.1-42.2v-56.1h-11.9v55.2c0,20.4-9.9,31.7-27.8,31.7c-18,0-27.7-11.3-27.7-31.7v-55.2L1105.5,434.7z"/>
			<path class="st0" d="M1206,434.1h13.7v98H1206V434.1z"/>
			<path class="st0" d="M1220.3,532.7h-14.9v-99.2h14.9V532.7z M1206.6,531.5h12.5v-96.8h-12.5V531.5z"/>
			<path class="st0" d="M1303.6,440.9v15.2h-0.7c-6.3-7.1-16.8-10.9-29.8-10.9c-13.4,0-22.1,6.3-22.1,16.2c0,8.6,5.4,12.2,23.3,14.2
				c25.4,2.7,34.5,11.2,34.5,28.9c0,18.2-13.6,29.1-36.2,29.1c-15.3,0-27.8-3.5-35.7-10v-15h0.7c8.3,8.3,20.3,12.5,34.8,12.5
				s22.9-5.9,22.9-16.2c0-9.1-5.9-13.3-24.3-15.3c-24.9-2.8-33.5-10.6-33.5-27.3c0-18,13.8-29.5,35.8-29.5
				C1286.1,432.6,1297.5,435.7,1303.6,440.9z"/>
			<path class="st0" d="M1272.6,534.1c-15.3,0-28.1-3.6-36-10.2l-0.2-0.2v-15.9h1.5l0.2,0.2c8.1,8.1,20,12.4,34.4,12.4
				c14.1,0,22.2-5.7,22.2-15.6c0-9-6-12.8-23.7-14.8c-24.5-2.8-34-10.6-34-27.8c0-18.3,14.3-30.1,36.4-30.1c13,0,24.5,3.1,30.8,8.4
				l0.2,0.2v16.1h-1.6l-0.2-0.2c-6.1-7-16.6-10.7-29.4-10.7c-13.1,0-21.5,6.1-21.5,15.7c0,8.4,5.5,11.7,22.7,13.6
				c25.2,2.6,35.1,10.9,35.1,29.5C1309.3,523.1,1295.6,534.1,1272.6,534.1z M1237.5,523.2c7.7,6.3,20.2,9.7,35.1,9.7
				c22.3,0,35.6-10.6,35.6-28.5s-9.5-25.8-34-28.3c-17.8-1.9-23.8-5.6-23.8-14.7c0-10.2,8.9-16.8,22.7-16.8c12.9,0,23.6,3.8,30,10.8
				v-14.2c-6.1-5-17.2-8-29.8-8c-21.7,0-35.2,11.1-35.2,28.9c0,16.8,8.9,24,33,26.7c18.3,2,24.8,6.2,24.8,15.9
				c0,10.7-8.5,16.8-23.4,16.8c-14.5,0-26.6-4.3-34.9-12.4L1237.5,523.2z"/>
			<path class="st0" d="M1385.4,440.9v15.2h-0.7c-6.3-7.1-16.8-10.9-29.8-10.9c-13.4,0-22.1,6.3-22.1,16.2c0,8.6,5.4,12.2,23.3,14.2
				c25.4,2.7,34.5,11.2,34.5,28.9c0,18.2-13.6,29.1-36.2,29.1c-15.3,0-27.8-3.5-35.7-10v-15h0.7c8.3,8.3,20.3,12.5,34.8,12.5
				c14.5,0,22.9-5.9,22.9-16.2c0-9.1-5.9-13.3-24.3-15.3c-24.9-2.8-33.5-10.6-33.5-27.3c0-18,13.8-29.5,35.8-29.5
				C1367.8,432.6,1379.3,435.7,1385.4,440.9z"/>
			<path class="st0" d="M1354.3,534.1c-15.3,0-28.1-3.6-36-10.2l-0.2-0.2v-15.9h1.5l0.2,0.2c8.1,8.1,20,12.4,34.4,12.4
				c14.1,0,22.2-5.7,22.2-15.6c0-9-6-12.8-23.7-14.8c-24.5-2.8-34-10.6-34-27.8c0-18.3,14.3-30.1,36.4-30.1c13,0,24.5,3.1,30.8,8.4
				l0.2,0.2v16.1h-1.6l-0.2-0.2c-6.1-7-16.6-10.7-29.4-10.7c-13.1,0-21.5,6.1-21.5,15.7c0,8.4,5.5,11.7,22.7,13.6
				c25.2,2.6,35.1,10.9,35.1,29.5C1391.1,523.1,1377.4,534.1,1354.3,534.1z M1319.2,523.2c7.7,6.3,20.2,9.7,35.1,9.7
				c22.3,0,35.6-10.6,35.6-28.5s-9.5-25.8-34-28.3c-17.8-1.9-23.8-5.6-23.8-14.7c0-10.2,8.9-16.8,22.7-16.8c12.9,0,23.6,3.8,30,10.8
				v-14.2c-6.1-5-17.2-8-29.8-8c-21.7,0-35.2,11.1-35.2,28.9c0,16.8,8.9,24,33,26.7c18.3,2,24.8,6.2,24.8,15.9
				c0,10.7-8.5,16.8-23.4,16.8c-14.5,0-26.6-4.3-34.9-12.4L1319.2,523.2z"/>
			<path class="st0" d="M1406.7,434.1h13.7v98h-13.7V434.1z"/>
			<path class="st0" d="M1420.9,532.7H1406v-99.2h14.9V532.7z M1407.2,531.5h12.5v-96.8h-12.5V531.5z"/>
		</g>
	</g>
</g>
</svg>
