<?xml version="1.0" encoding="UTF-8"?><svg id="Layer_1" xmlns="http://www.w3.org/2000/svg" viewBox="0 0 24 24"><defs><style>.cls-1{fill:#fff;}</style></defs><path class="cls-1" d="M14.83,6.3c-.74-.03-.96-.04-2.83-.04s-2.09,0-2.83,.04c-1.9,.09-2.78,.99-2.87,2.87-.03,.74-.04,.96-.04,2.83s0,2.09,.04,2.83c.09,1.88,.97,2.78,2.87,2.87,.74,.03,.96,.04,2.83,.04s2.09,0,2.83-.04c1.9-.09,2.78-.99,2.87-2.87,.03-.74,.04-.96,.04-2.83s0-2.09-.04-2.83c-.09-1.88-.97-2.78-2.87-2.87Zm-2.83,9.29c-1.98,0-3.6-1.61-3.6-3.6s1.61-3.59,3.6-3.59,3.6,1.61,3.6,3.59-1.61,3.6-3.6,3.6Zm3.74-6.49c-.46,0-.84-.38-.84-.84s.38-.84,.84-.84,.84,.38,.84,.84-.38,.84-.84,.84Zm-1.4,2.9c0,1.29-1.05,2.33-2.33,2.33s-2.33-1.04-2.33-2.33,1.05-2.33,2.33-2.33,2.33,1.04,2.33,2.33ZM12,0C5.37,0,0,5.37,0,12s5.37,12,12,12,12-5.37,12-12S18.63,0,12,0Zm6.96,14.89c-.11,2.55-1.53,3.95-4.07,4.07-.75,.03-.99,.04-2.89,.04s-2.14,0-2.89-.04c-2.54-.12-3.95-1.53-4.07-4.07-.03-.75-.04-.98-.04-2.89s0-2.14,.04-2.89c.12-2.54,1.53-3.95,4.07-4.07,.75-.03,.98-.04,2.89-.04s2.14,0,2.89,.04c2.54,.12,3.96,1.53,4.07,4.07,.03,.75,.04,.98,.04,2.89s0,2.14-.04,2.89Z"/></svg>