<?xml version="1.0" encoding="UTF-8"?><svg id="Layer_1" xmlns="http://www.w3.org/2000/svg" viewBox="0 0 24 24"><defs><style>.cls-1{fill:#fff;}</style></defs><path class="cls-1" d="M12,0C5.37,0,0,5.37,0,12s5.37,12,12,12,12-5.37,12-12S18.63,0,12,0Zm2.22,18.62c-.35,.07-.47-.15-.47-.34v-1.92c0-.65-.23-1.08-.48-1.3,1.56-.17,3.2-.77,3.2-3.45,0-.77-.27-1.39-.72-1.88,.07-.18,.31-.89-.07-1.85,0,0-.59-.19-1.92,.72-.56-.15-1.16-.23-1.75-.23-.6,0-1.19,.08-1.75,.23-1.34-.9-1.93-.72-1.93-.72-.38,.96-.14,1.68-.07,1.85-.45,.49-.72,1.11-.72,1.88,0,2.68,1.63,3.28,3.19,3.46-.2,.18-.38,.48-.44,.94-.4,.18-1.41,.49-2.04-.58,0,0-.37-.67-1.07-.72,0,0-.68,0-.05,.43,0,0,.46,.22,.78,1.02,0,0,.4,1.25,2.35,.83v1.3c0,.18-.11,.4-.46,.34-2.78-.92-4.79-3.55-4.79-6.64,0-3.87,3.14-7,7-7s7,3.13,7,7c0,3.09-2,5.71-4.78,6.64Z"/></svg>